<svg version="1.1" xmlns="http://www.w3.org/2000/svg" xmlns:xlink="http://www.w3.org/1999/xlink" width="627" height="521"><defs/><g><text fill="#eeeeee" stroke="none" font-family="Arial" font-size="24px" font-style="normal" font-weight="normal" text-decoration="none" x="0" y="0">UNREGISTERED</text><text fill="#eeeeee" stroke="none" font-family="Arial" font-size="24px" font-style="normal" font-weight="normal" text-decoration="none" x="0" y="30">UNREGISTERED</text><text fill="#eeeeee" stroke="none" font-family="Arial" font-size="24px" font-style="normal" font-weight="normal" text-decoration="none" x="0" y="60">UNREGISTERED</text><text fill="#eeeeee" stroke="none" font-family="Arial" font-size="24px" font-style="normal" font-weight="normal" text-decoration="none" x="0" y="90">UNREGISTERED</text><text fill="#eeeeee" stroke="none" font-family="Arial" font-size="24px" font-style="normal" font-weight="normal" text-decoration="none" x="0" y="120">UNREGISTERED</text><text fill="#eeeeee" stroke="none" font-family="Arial" font-size="24px" font-style="normal" font-weight="normal" text-decoration="none" x="0" y="150">UNREGISTERED</text><text fill="#eeeeee" stroke="none" font-family="Arial" font-size="24px" font-style="normal" font-weight="normal" text-decoration="none" x="0" y="180">UNREGISTERED</text><text fill="#eeeeee" stroke="none" font-family="Arial" font-size="24px" font-style="normal" font-weight="normal" text-decoration="none" x="0" y="210">UNREGISTERED</text><text fill="#eeeeee" stroke="none" font-family="Arial" font-size="24px" font-style="normal" font-weight="normal" text-decoration="none" x="0" y="240">UNREGISTERED</text><text fill="#eeeeee" stroke="none" font-family="Arial" font-size="24px" font-style="normal" font-weight="normal" text-decoration="none" x="0" y="270">UNREGISTERED</text><text fill="#eeeeee" stroke="none" font-family="Arial" font-size="24px" font-style="normal" font-weight="normal" text-decoration="none" x="0" y="300">UNREGISTERED</text><text fill="#eeeeee" stroke="none" font-family="Arial" font-size="24px" font-style="normal" font-weight="normal" text-decoration="none" x="0" y="330">UNREGISTERED</text><text fill="#eeeeee" stroke="none" font-family="Arial" font-size="24px" font-style="normal" font-weight="normal" text-decoration="none" x="0" y="360">UNREGISTERED</text><text fill="#eeeeee" stroke="none" font-family="Arial" font-size="24px" font-style="normal" font-weight="normal" text-decoration="none" x="0" y="390">UNREGISTERED</text><text fill="#eeeeee" stroke="none" font-family="Arial" font-size="24px" font-style="normal" font-weight="normal" text-decoration="none" x="0" y="420">UNREGISTERED</text><text fill="#eeeeee" stroke="none" font-family="Arial" font-size="24px" font-style="normal" font-weight="normal" text-decoration="none" x="0" y="450">UNREGISTERED</text><text fill="#eeeeee" stroke="none" font-family="Arial" font-size="24px" font-style="normal" font-weight="normal" text-decoration="none" x="0" y="480">UNREGISTERED</text><text fill="#eeeeee" stroke="none" font-family="Arial" font-size="24px" font-style="normal" font-weight="normal" text-decoration="none" x="0" y="510">UNREGISTERED</text><text fill="#eeeeee" stroke="none" font-family="Arial" font-size="24px" font-style="normal" font-weight="normal" text-decoration="none" x="200" y="0">UNREGISTERED</text><text fill="#eeeeee" stroke="none" font-family="Arial" font-size="24px" font-style="normal" font-weight="normal" text-decoration="none" x="200" y="30">UNREGISTERED</text><text fill="#eeeeee" stroke="none" font-family="Arial" font-size="24px" font-style="normal" font-weight="normal" text-decoration="none" x="200" y="60">UNREGISTERED</text><text fill="#eeeeee" stroke="none" font-family="Arial" font-size="24px" font-style="normal" font-weight="normal" text-decoration="none" x="200" y="90">UNREGISTERED</text><text fill="#eeeeee" stroke="none" font-family="Arial" font-size="24px" font-style="normal" font-weight="normal" text-decoration="none" x="200" y="120">UNREGISTERED</text><text fill="#eeeeee" stroke="none" font-family="Arial" font-size="24px" font-style="normal" font-weight="normal" text-decoration="none" x="200" y="150">UNREGISTERED</text><text fill="#eeeeee" stroke="none" font-family="Arial" font-size="24px" font-style="normal" font-weight="normal" text-decoration="none" x="200" y="180">UNREGISTERED</text><text fill="#eeeeee" stroke="none" font-family="Arial" font-size="24px" font-style="normal" font-weight="normal" text-decoration="none" x="200" y="210">UNREGISTERED</text><text fill="#eeeeee" stroke="none" font-family="Arial" font-size="24px" font-style="normal" font-weight="normal" text-decoration="none" x="200" y="240">UNREGISTERED</text><text fill="#eeeeee" stroke="none" font-family="Arial" font-size="24px" font-style="normal" font-weight="normal" text-decoration="none" x="200" y="270">UNREGISTERED</text><text fill="#eeeeee" stroke="none" font-family="Arial" font-size="24px" font-style="normal" font-weight="normal" text-decoration="none" x="200" y="300">UNREGISTERED</text><text fill="#eeeeee" stroke="none" font-family="Arial" font-size="24px" font-style="normal" font-weight="normal" text-decoration="none" x="200" y="330">UNREGISTERED</text><text fill="#eeeeee" stroke="none" font-family="Arial" font-size="24px" font-style="normal" font-weight="normal" text-decoration="none" x="200" y="360">UNREGISTERED</text><text fill="#eeeeee" stroke="none" font-family="Arial" font-size="24px" font-style="normal" font-weight="normal" text-decoration="none" x="200" y="390">UNREGISTERED</text><text fill="#eeeeee" stroke="none" font-family="Arial" font-size="24px" font-style="normal" font-weight="normal" text-decoration="none" x="200" y="420">UNREGISTERED</text><text fill="#eeeeee" stroke="none" font-family="Arial" font-size="24px" font-style="normal" font-weight="normal" text-decoration="none" x="200" y="450">UNREGISTERED</text><text fill="#eeeeee" stroke="none" font-family="Arial" font-size="24px" font-style="normal" font-weight="normal" text-decoration="none" x="200" y="480">UNREGISTERED</text><text fill="#eeeeee" stroke="none" font-family="Arial" font-size="24px" font-style="normal" font-weight="normal" text-decoration="none" x="200" y="510">UNREGISTERED</text><text fill="#eeeeee" stroke="none" font-family="Arial" font-size="24px" font-style="normal" font-weight="normal" text-decoration="none" x="400" y="0">UNREGISTERED</text><text fill="#eeeeee" stroke="none" font-family="Arial" font-size="24px" font-style="normal" font-weight="normal" text-decoration="none" x="400" y="30">UNREGISTERED</text><text fill="#eeeeee" stroke="none" font-family="Arial" font-size="24px" font-style="normal" font-weight="normal" text-decoration="none" x="400" y="60">UNREGISTERED</text><text fill="#eeeeee" stroke="none" font-family="Arial" font-size="24px" font-style="normal" font-weight="normal" text-decoration="none" x="400" y="90">UNREGISTERED</text><text fill="#eeeeee" stroke="none" font-family="Arial" font-size="24px" font-style="normal" font-weight="normal" text-decoration="none" x="400" y="120">UNREGISTERED</text><text fill="#eeeeee" stroke="none" font-family="Arial" font-size="24px" font-style="normal" font-weight="normal" text-decoration="none" x="400" y="150">UNREGISTERED</text><text fill="#eeeeee" stroke="none" font-family="Arial" font-size="24px" font-style="normal" font-weight="normal" text-decoration="none" x="400" y="180">UNREGISTERED</text><text fill="#eeeeee" stroke="none" font-family="Arial" font-size="24px" font-style="normal" font-weight="normal" text-decoration="none" x="400" y="210">UNREGISTERED</text><text fill="#eeeeee" stroke="none" font-family="Arial" font-size="24px" font-style="normal" font-weight="normal" text-decoration="none" x="400" y="240">UNREGISTERED</text><text fill="#eeeeee" stroke="none" font-family="Arial" font-size="24px" font-style="normal" font-weight="normal" text-decoration="none" x="400" y="270">UNREGISTERED</text><text fill="#eeeeee" stroke="none" font-family="Arial" font-size="24px" font-style="normal" font-weight="normal" text-decoration="none" x="400" y="300">UNREGISTERED</text><text fill="#eeeeee" stroke="none" font-family="Arial" font-size="24px" font-style="normal" font-weight="normal" text-decoration="none" x="400" y="330">UNREGISTERED</text><text fill="#eeeeee" stroke="none" font-family="Arial" font-size="24px" font-style="normal" font-weight="normal" text-decoration="none" x="400" y="360">UNREGISTERED</text><text fill="#eeeeee" stroke="none" font-family="Arial" font-size="24px" font-style="normal" font-weight="normal" text-decoration="none" x="400" y="390">UNREGISTERED</text><text fill="#eeeeee" stroke="none" font-family="Arial" font-size="24px" font-style="normal" font-weight="normal" text-decoration="none" x="400" y="420">UNREGISTERED</text><text fill="#eeeeee" stroke="none" font-family="Arial" font-size="24px" font-style="normal" font-weight="normal" text-decoration="none" x="400" y="450">UNREGISTERED</text><text fill="#eeeeee" stroke="none" font-family="Arial" font-size="24px" font-style="normal" font-weight="normal" text-decoration="none" x="400" y="480">UNREGISTERED</text><text fill="#eeeeee" stroke="none" font-family="Arial" font-size="24px" font-style="normal" font-weight="normal" text-decoration="none" x="400" y="510">UNREGISTERED</text><text fill="#eeeeee" stroke="none" font-family="Arial" font-size="24px" font-style="normal" font-weight="normal" text-decoration="none" x="600" y="0">UNREGISTERED</text><text fill="#eeeeee" stroke="none" font-family="Arial" font-size="24px" font-style="normal" font-weight="normal" text-decoration="none" x="600" y="30">UNREGISTERED</text><text fill="#eeeeee" stroke="none" font-family="Arial" font-size="24px" font-style="normal" font-weight="normal" text-decoration="none" x="600" y="60">UNREGISTERED</text><text fill="#eeeeee" stroke="none" font-family="Arial" font-size="24px" font-style="normal" font-weight="normal" text-decoration="none" x="600" y="90">UNREGISTERED</text><text fill="#eeeeee" stroke="none" font-family="Arial" font-size="24px" font-style="normal" font-weight="normal" text-decoration="none" x="600" y="120">UNREGISTERED</text><text fill="#eeeeee" stroke="none" font-family="Arial" font-size="24px" font-style="normal" font-weight="normal" text-decoration="none" x="600" y="150">UNREGISTERED</text><text fill="#eeeeee" stroke="none" font-family="Arial" font-size="24px" font-style="normal" font-weight="normal" text-decoration="none" x="600" y="180">UNREGISTERED</text><text fill="#eeeeee" stroke="none" font-family="Arial" font-size="24px" font-style="normal" font-weight="normal" text-decoration="none" x="600" y="210">UNREGISTERED</text><text fill="#eeeeee" stroke="none" font-family="Arial" font-size="24px" font-style="normal" font-weight="normal" text-decoration="none" x="600" y="240">UNREGISTERED</text><text fill="#eeeeee" stroke="none" font-family="Arial" font-size="24px" font-style="normal" font-weight="normal" text-decoration="none" x="600" y="270">UNREGISTERED</text><text fill="#eeeeee" stroke="none" font-family="Arial" font-size="24px" font-style="normal" font-weight="normal" text-decoration="none" x="600" y="300">UNREGISTERED</text><text fill="#eeeeee" stroke="none" font-family="Arial" font-size="24px" font-style="normal" font-weight="normal" text-decoration="none" x="600" y="330">UNREGISTERED</text><text fill="#eeeeee" stroke="none" font-family="Arial" font-size="24px" font-style="normal" font-weight="normal" text-decoration="none" x="600" y="360">UNREGISTERED</text><text fill="#eeeeee" stroke="none" font-family="Arial" font-size="24px" font-style="normal" font-weight="normal" text-decoration="none" x="600" y="390">UNREGISTERED</text><text fill="#eeeeee" stroke="none" font-family="Arial" font-size="24px" font-style="normal" font-weight="normal" text-decoration="none" x="600" y="420">UNREGISTERED</text><text fill="#eeeeee" stroke="none" font-family="Arial" font-size="24px" font-style="normal" font-weight="normal" text-decoration="none" x="600" y="450">UNREGISTERED</text><text fill="#eeeeee" stroke="none" font-family="Arial" font-size="24px" font-style="normal" font-weight="normal" text-decoration="none" x="600" y="480">UNREGISTERED</text><text fill="#eeeeee" stroke="none" font-family="Arial" font-size="24px" font-style="normal" font-weight="normal" text-decoration="none" x="600" y="510">UNREGISTERED</text><g transform="translate(-54,-614) scale(1,1)"><path fill="#ffffff" stroke="none" d="M 280 624 L 375 624 Q 399 624 399 648 L 399 647 Q 399 671 375 671 L 280 671 Q 256 671 256 647 L 256 648 Q 256 624 280 624 Z"/></g><g transform="translate(-54,-614) scale(1,1)"><path fill="none" stroke="#000000" d="M 280 624 L 375 624 Q 399 624 399 648 L 399 647 Q 399 671 375 671 L 280 671 Q 256 671 256 647 L 256 648 Q 256 624 280 624 Z" stroke-miterlimit="10"/></g><g transform="translate(-54,-614) scale(1,1)"><g><path fill="none" stroke="none"/><text fill="#000000" stroke="none" font-family="Arial" font-size="13px" font-style="normal" font-weight="normal" text-decoration="none" x="291.004150390625" y="646.5">Boohoo.com</text><text fill="#000000" stroke="none" font-family="Arial" font-size="13px" font-style="normal" font-weight="normal" text-decoration="none" x="284.262939453125" y="659.5">Welcome page</text></g></g><g transform="translate(-54,-614) scale(1,1)"><path fill="#ffffff" stroke="none" d="M 272 727.5 L 328.58447265625 696 L 385.1689453125 727.5 L 328.58447265625 759 L 272 727.5"/></g><g transform="translate(-54,-614) scale(1,1)"><path fill="none" stroke="#000000" d="M 272 727.5 L 328.58447265625 696 L 385.1689453125 727.5 L 328.58447265625 759 L 272 727.5 L 272 727.5" stroke-miterlimit="10"/></g><g transform="translate(-54,-614) scale(1,1)"><g><path fill="none" stroke="none"/><text fill="#000000" stroke="none" font-family="Arial" font-size="13px" font-style="normal" font-weight="normal" text-decoration="none" x="307.989501953125" y="727.5">Join as</text><text fill="#000000" stroke="none" font-family="Arial" font-size="13px" font-style="normal" font-weight="normal" text-decoration="none" x="301.130859375" y="740.5">member?</text></g></g><g transform="translate(-54,-614) scale(1,1)"><rect fill="#ffffff" stroke="none" x="456" y="672" width="103" height="45"/></g><g transform="translate(-54,-614) scale(1,1)"><path fill="none" stroke="#000000" d="M 456 672 L 559 672 L 559 717 L 456 717 L 456 672 Z Z" stroke-miterlimit="10"/></g><g transform="translate(-54,-614) scale(1,1)"><g><path fill="none" stroke="none"/><text fill="#000000" stroke="none" font-family="Arial" font-size="13px" font-style="normal" font-weight="normal" text-decoration="none" x="472.81005859375" y="694.5">Continue as</text><text fill="#000000" stroke="none" font-family="Arial" font-size="13px" font-style="normal" font-weight="normal" text-decoration="none" x="491.59912109375" y="707.5">guest</text></g></g><g transform="translate(-54,-614) scale(1,1)"><path fill="#ffffff" stroke="none" d="M 296 784 L 375 784 L 359 842 L 280 842 L 296 784"/></g><g transform="translate(-54,-614) scale(1,1)"><path fill="none" stroke="#000000" d="M 296 784 L 375 784 L 359 842 L 280 842 L 296 784 L 296 784" stroke-miterlimit="10"/></g><g transform="translate(-54,-614) scale(1,1)"><g><path fill="none" stroke="none"/><text fill="#000000" stroke="none" font-family="Arial" font-size="13px" font-style="normal" font-weight="normal" text-decoration="none" x="304.023193359375" y="806.5">Delivery</text><text fill="#000000" stroke="none" font-family="Arial" font-size="13px" font-style="normal" font-weight="normal" text-decoration="none" x="304.37548828125" y="819.5">address</text><text fill="#000000" stroke="none" font-family="Arial" font-size="13px" font-style="normal" font-weight="normal" text-decoration="none" x="305.819580078125" y="832.5">request</text></g></g><g transform="translate(-54,-614) scale(1,1)"><path fill="#ffffff" stroke="none" d="M 416 778 L 519 768 L 519 831 L 416 831 L 416 778"/></g><g transform="translate(-54,-614) scale(1,1)"><path fill="none" stroke="#000000" d="M 416 778 L 519 768 L 519 831 L 416 831 L 416 778 L 416 778" stroke-miterlimit="10"/></g><g transform="translate(-54,-614) scale(1,1)"><g><path fill="none" stroke="none"/><text fill="#000000" stroke="none" font-family="Arial" font-size="13px" font-style="normal" font-weight="normal" text-decoration="none" x="428.11279296875" y="811">Input address</text></g></g><g transform="translate(-54,-614) scale(1,1)"><path fill="#ffffff" stroke="none" d="M 597 784 L 663 784 L 650 842 L 584 842 L 597 784"/></g><g transform="translate(-54,-614) scale(1,1)"><path fill="none" stroke="#000000" d="M 597 784 L 663 784 L 650 842 L 584 842 L 597 784 L 597 784" stroke-miterlimit="10"/></g><g transform="translate(-54,-614) scale(1,1)"><g><path fill="none" stroke="none"/><text fill="#000000" stroke="none" font-family="Arial" font-size="13px" font-style="normal" font-weight="normal" text-decoration="none" x="606.158203125" y="806.5">Billing</text><text fill="#000000" stroke="none" font-family="Arial" font-size="13px" font-style="normal" font-weight="normal" text-decoration="none" x="600.37548828125" y="819.5">address</text><text fill="#000000" stroke="none" font-family="Arial" font-size="13px" font-style="normal" font-weight="normal" text-decoration="none" x="601.819580078125" y="832.5">request</text></g></g><g transform="translate(-54,-614) scale(1,1)"><path fill="#ffffff" stroke="none" d="M 584 880 L 671 872 L 671 919 L 584 919 L 584 880"/></g><g transform="translate(-54,-614) scale(1,1)"><path fill="none" stroke="#000000" d="M 584 880 L 671 872 L 671 919 L 584 919 L 584 880 L 584 880" stroke-miterlimit="10"/></g><g transform="translate(-54,-614) scale(1,1)"><g><path fill="none" stroke="none"/><text fill="#000000" stroke="none" font-family="Arial" font-size="13px" font-style="normal" font-weight="normal" text-decoration="none" x="613.043212890625" y="899.5">Input</text><text fill="#000000" stroke="none" font-family="Arial" font-size="13px" font-style="normal" font-weight="normal" text-decoration="none" x="604.37548828125" y="912.5">address</text></g></g><g transform="translate(-54,-614) scale(1,1)"><path fill="#ffffff" stroke="none" d="M 424 872 L 503 872 L 487 930 L 408 930 L 424 872"/></g><g transform="translate(-54,-614) scale(1,1)"><path fill="none" stroke="#000000" d="M 424 872 L 503 872 L 487 930 L 408 930 L 424 872 L 424 872" stroke-miterlimit="10"/></g><g transform="translate(-54,-614) scale(1,1)"><g><path fill="none" stroke="none"/><text fill="#000000" stroke="none" font-family="Arial" font-size="13px" font-style="normal" font-weight="normal" text-decoration="none" x="429.84912109375" y="894.5">Payment</text><text fill="#000000" stroke="none" font-family="Arial" font-size="13px" font-style="normal" font-weight="normal" text-decoration="none" x="433.819580078125" y="907.5">method</text><text fill="#000000" stroke="none" font-family="Arial" font-size="13px" font-style="normal" font-weight="normal" text-decoration="none" x="433.819580078125" y="920.5">request</text></g></g><g transform="translate(-54,-614) scale(1,1)"><path fill="#ffffff" stroke="none" d="M 256 889 L 342.208984375 880 L 342.208984375 938 L 256 938 L 256 889"/></g><g transform="translate(-54,-614) scale(1,1)"><path fill="none" stroke="#000000" d="M 256 889 L 342.208984375 880 L 342.208984375 938 L 256 938 L 256 889 L 256 889" stroke-miterlimit="10"/></g><g transform="translate(-54,-614) scale(1,1)"><g><path fill="none" stroke="none"/><text fill="#000000" stroke="none" font-family="Arial" font-size="13px" font-style="normal" font-weight="normal" text-decoration="none" x="283.568603515625" y="907">Enter</text><text fill="#000000" stroke="none" font-family="Arial" font-size="13px" font-style="normal" font-weight="normal" text-decoration="none" x="265.5" y="920">card/paypal</text><text fill="#000000" stroke="none" font-family="Arial" font-size="13px" font-style="normal" font-weight="normal" text-decoration="none" x="280.3154296875" y="933">details</text></g></g><g transform="translate(-54,-614) scale(1,1)"><rect fill="#ffffff" stroke="none" x="88" y="888" width="73.18994140625" height="45"/></g><g transform="translate(-54,-614) scale(1,1)"><path fill="none" stroke="#000000" d="M 88 888 L 161.18994140625 888 L 161.18994140625 933 L 88 933 L 88 888 Z Z" stroke-miterlimit="10"/></g><g transform="translate(-54,-614) scale(1,1)"><g><path fill="none" stroke="none"/><text fill="#000000" stroke="none" font-family="Arial" font-size="13px" font-style="normal" font-weight="normal" text-decoration="none" x="109.779541015625" y="910.5">Save</text><text fill="#000000" stroke="none" font-family="Arial" font-size="13px" font-style="normal" font-weight="normal" text-decoration="none" x="105.805908203125" y="923.5">details</text></g></g><g transform="translate(-54,-614) scale(1,1)"><path fill="#ffffff" stroke="none" d="M 64 1007.5 L 120.58447265625 968 L 177.1689453125 1007.5 L 120.58447265625 1047 L 64 1007.5"/></g><g transform="translate(-54,-614) scale(1,1)"><path fill="none" stroke="#000000" d="M 64 1007.5 L 120.58447265625 968 L 177.1689453125 1007.5 L 120.58447265625 1047 L 64 1007.5 L 64 1007.5" stroke-miterlimit="10"/></g><g transform="translate(-54,-614) scale(1,1)"><g><path fill="none" stroke="none"/><text fill="#000000" stroke="none" font-family="Arial" font-size="13px" font-style="normal" font-weight="normal" text-decoration="none" x="97.101318359375" y="1001">Receive</text><text fill="#000000" stroke="none" font-family="Arial" font-size="13px" font-style="normal" font-weight="normal" text-decoration="none" x="97.45361328125" y="1014">updates</text><text fill="#000000" stroke="none" font-family="Arial" font-size="13px" font-style="normal" font-weight="normal" text-decoration="none" x="93.603759765625" y="1027">on offers </text></g></g><g transform="translate(-54,-614) scale(1,1)"><path fill="#ffffff" stroke="none" d="M 248 986 L 335 976 L 335 1039 L 248 1039 L 248 986"/></g><g transform="translate(-54,-614) scale(1,1)"><path fill="none" stroke="#000000" d="M 248 986 L 335 976 L 335 1039 L 248 1039 L 248 986 L 248 986" stroke-miterlimit="10"/></g><g transform="translate(-54,-614) scale(1,1)"><g><path fill="none" stroke="none"/><text fill="#000000" stroke="none" font-family="Arial" font-size="13px" font-style="normal" font-weight="normal" text-decoration="none" x="269.4609375" y="1006">Provide</text><text fill="#000000" stroke="none" font-family="Arial" font-size="13px" font-style="normal" font-weight="normal" text-decoration="none" x="275.96728515625" y="1019">email</text><text fill="#000000" stroke="none" font-family="Arial" font-size="13px" font-style="normal" font-weight="normal" text-decoration="none" x="268.37548828125" y="1032">address</text></g></g><g transform="translate(-54,-614) scale(1,1)"><path fill="none" stroke="#000000" d="M 327 671 L 327 696" stroke-miterlimit="10"/></g><g transform="translate(-54,-614) scale(1,1)"><path fill="#000000" stroke="none" d="M 322.790482243984 685.8373251423759 L 327 696 L 331.209517756016 685.8373251423759"/></g><g transform="translate(-54,-614) scale(1,1)"><path fill="none" stroke="#000000" d="M 322.790482243984 685.8373251423759 L 327 696 L 331.209517756016 685.8373251423759 L 322.790482243984 685.8373251423759" stroke-miterlimit="10"/></g><g transform="translate(-54,-614) scale(1,1)"><path fill="none" stroke="#000000" d="M 385 716 L 456 716" stroke-miterlimit="10"/></g><g transform="translate(-54,-614) scale(1,1)"><path fill="#000000" stroke="none" d="M 445.83732514237585 720.209517756016 L 456 716 L 445.83732514237585 711.790482243984"/></g><g transform="translate(-54,-614) scale(1,1)"><path fill="none" stroke="#000000" d="M 445.83732514237585 720.209517756016 L 456 716 L 445.83732514237585 711.790482243984 L 445.83732514237585 720.209517756016" stroke-miterlimit="10"/></g><g transform="translate(-54,-614) scale(1,1)"><path fill="none" stroke="#000000" d="M 328 759 L 328 784" stroke-miterlimit="10"/></g><g transform="translate(-54,-614) scale(1,1)"><path fill="#000000" stroke="none" d="M 323.790482243984 773.8373251423759 L 328 784 L 332.209517756016 773.8373251423759"/></g><g transform="translate(-54,-614) scale(1,1)"><path fill="none" stroke="#000000" d="M 323.790482243984 773.8373251423759 L 328 784 L 332.209517756016 773.8373251423759 L 323.790482243984 773.8373251423759" stroke-miterlimit="10"/></g><g transform="translate(-54,-614) scale(1,1)"><path fill="none" stroke="#000000" d="M 375 803 L 416 803" stroke-miterlimit="10"/></g><g transform="translate(-54,-614) scale(1,1)"><path fill="#000000" stroke="none" d="M 405.83732514237585 807.209517756016 L 416 803 L 405.83732514237585 798.790482243984"/></g><g transform="translate(-54,-614) scale(1,1)"><path fill="none" stroke="#000000" d="M 405.83732514237585 807.209517756016 L 416 803 L 405.83732514237585 798.790482243984 L 405.83732514237585 807.209517756016" stroke-miterlimit="10"/></g><g transform="translate(-54,-614) scale(1,1)"><path fill="none" stroke="#000000" d="M 519 810 L 584 810" stroke-miterlimit="10"/></g><g transform="translate(-54,-614) scale(1,1)"><path fill="#000000" stroke="none" d="M 573.8373251423759 814.209517756016 L 584 810 L 573.8373251423758 805.790482243984"/></g><g transform="translate(-54,-614) scale(1,1)"><path fill="none" stroke="#000000" d="M 573.8373251423759 814.209517756016 L 584 810 L 573.8373251423758 805.790482243984 L 573.8373251423759 814.209517756016" stroke-miterlimit="10"/></g><g transform="translate(-54,-614) scale(1,1)"><path fill="none" stroke="#000000" d="M 624 842 L 624 872" stroke-miterlimit="10"/></g><g transform="translate(-54,-614) scale(1,1)"><path fill="#000000" stroke="none" d="M 619.790482243984 861.8373251423759 L 624 872 L 628.209517756016 861.8373251423759"/></g><g transform="translate(-54,-614) scale(1,1)"><path fill="none" stroke="#000000" d="M 619.790482243984 861.8373251423759 L 624 872 L 628.209517756016 861.8373251423759 L 619.790482243984 861.8373251423759" stroke-miterlimit="10"/></g><g transform="translate(-54,-614) scale(1,1)"><path fill="none" stroke="#000000" d="M 584 899 L 503 899" stroke-miterlimit="10"/></g><g transform="translate(-54,-614) scale(1,1)"><path fill="#000000" stroke="none" d="M 513.1626748576241 894.790482243984 L 503 899 L 513.1626748576241 903.209517756016"/></g><g transform="translate(-54,-614) scale(1,1)"><path fill="none" stroke="#000000" d="M 513.1626748576241 894.790482243984 L 503 899 L 513.1626748576241 903.209517756016 L 513.1626748576241 894.790482243984" stroke-miterlimit="10"/></g><g transform="translate(-54,-614) scale(1,1)"><path fill="none" stroke="#000000" d="M 408 907 L 342 907" stroke-miterlimit="10"/></g><g transform="translate(-54,-614) scale(1,1)"><path fill="#000000" stroke="none" d="M 352.16267485762415 902.790482243984 L 342 907 L 352.16267485762415 911.209517756016"/></g><g transform="translate(-54,-614) scale(1,1)"><path fill="none" stroke="#000000" d="M 352.16267485762415 902.790482243984 L 342 907 L 352.16267485762415 911.209517756016 L 352.16267485762415 902.790482243984" stroke-miterlimit="10"/></g><g transform="translate(-54,-614) scale(1,1)"><path fill="none" stroke="#000000" d="M 256 910 L 161 910" stroke-miterlimit="10"/></g><g transform="translate(-54,-614) scale(1,1)"><path fill="#000000" stroke="none" d="M 171.16267485762415 905.790482243984 L 161 910 L 171.16267485762415 914.209517756016"/></g><g transform="translate(-54,-614) scale(1,1)"><path fill="none" stroke="#000000" d="M 171.16267485762415 905.790482243984 L 161 910 L 171.16267485762415 914.209517756016 L 171.16267485762415 905.790482243984" stroke-miterlimit="10"/></g><g transform="translate(-54,-614) scale(1,1)"><path fill="none" stroke="#000000" d="M 123 933 L 123 968" stroke-miterlimit="10"/></g><g transform="translate(-54,-614) scale(1,1)"><path fill="#000000" stroke="none" d="M 118.79048224398402 957.8373251423759 L 123 968 L 127.20951775601598 957.8373251423759"/></g><g transform="translate(-54,-614) scale(1,1)"><path fill="none" stroke="#000000" d="M 118.79048224398402 957.8373251423759 L 123 968 L 127.20951775601598 957.8373251423759 L 118.79048224398402 957.8373251423759" stroke-miterlimit="10"/></g><g transform="translate(-54,-614) scale(1,1)"><path fill="none" stroke="#000000" d="M 177 1007 L 248 1007" stroke-miterlimit="10"/></g><g transform="translate(-54,-614) scale(1,1)"><path fill="#000000" stroke="none" d="M 237.83732514237585 1011.209517756016 L 248 1007 L 237.83732514237585 1002.790482243984"/></g><g transform="translate(-54,-614) scale(1,1)"><path fill="none" stroke="#000000" d="M 237.83732514237585 1011.209517756016 L 248 1007 L 237.83732514237585 1002.790482243984 L 237.83732514237585 1011.209517756016" stroke-miterlimit="10"/></g><g transform="translate(-54,-614) scale(1,1)"><g><path fill="none" stroke="none"/><text fill="#000000" stroke="none" font-family="Arial" font-size="13px" font-style="normal" font-weight="normal" text-decoration="none" x="405" y="706">No</text></g></g><g transform="translate(-54,-614) scale(1,1)"><g><path fill="none" stroke="none"/><text fill="#000000" stroke="none" font-family="Arial" font-size="13px" font-style="normal" font-weight="normal" text-decoration="none" x="237" y="770">Yes</text></g></g><g transform="translate(-54,-614) scale(1,1)"><rect fill="#ffffff" stroke="none" x="80" y="1080" width="95" height="45"/></g><g transform="translate(-54,-614) scale(1,1)"><path fill="none" stroke="#000000" d="M 80 1080 L 175 1080 L 175 1125 L 80 1125 L 80 1080 Z Z" stroke-miterlimit="10"/></g><g transform="translate(-54,-614) scale(1,1)"><g><path fill="none" stroke="none"/><text fill="#000000" stroke="none" font-family="Arial" font-size="13px" font-style="normal" font-weight="normal" text-decoration="none" x="101.48095703125" y="1102.5">Continue</text><text fill="#000000" stroke="none" font-family="Arial" font-size="13px" font-style="normal" font-weight="normal" text-decoration="none" x="100.043212890625" y="1115.5">browising</text></g></g><g transform="translate(-54,-614) scale(1,1)"><path fill="none" stroke="#000000" d="M 123 1047 L 123 1080" stroke-miterlimit="10"/></g><g transform="translate(-54,-614) scale(1,1)"><path fill="#000000" stroke="none" d="M 118.79048224398402 1069.837325142376 L 123 1080 L 127.20951775601598 1069.837325142376"/></g><g transform="translate(-54,-614) scale(1,1)"><path fill="none" stroke="#000000" d="M 118.79048224398402 1069.837325142376 L 123 1080 L 127.20951775601598 1069.837325142376 L 118.79048224398402 1069.837325142376" stroke-miterlimit="10"/></g></g></svg>