<svg version="1.1" xmlns="http://www.w3.org/2000/svg" xmlns:xlink="http://www.w3.org/1999/xlink" width="700" height="656"><defs/><g><text fill="#eeeeee" stroke="none" font-family="Arial" font-size="24px" font-style="normal" font-weight="normal" text-decoration="none" x="0" y="0">UNREGISTERED</text><text fill="#eeeeee" stroke="none" font-family="Arial" font-size="24px" font-style="normal" font-weight="normal" text-decoration="none" x="0" y="30">UNREGISTERED</text><text fill="#eeeeee" stroke="none" font-family="Arial" font-size="24px" font-style="normal" font-weight="normal" text-decoration="none" x="0" y="60">UNREGISTERED</text><text fill="#eeeeee" stroke="none" font-family="Arial" font-size="24px" font-style="normal" font-weight="normal" text-decoration="none" x="0" y="90">UNREGISTERED</text><text fill="#eeeeee" stroke="none" font-family="Arial" font-size="24px" font-style="normal" font-weight="normal" text-decoration="none" x="0" y="120">UNREGISTERED</text><text fill="#eeeeee" stroke="none" font-family="Arial" font-size="24px" font-style="normal" font-weight="normal" text-decoration="none" x="0" y="150">UNREGISTERED</text><text fill="#eeeeee" stroke="none" font-family="Arial" font-size="24px" font-style="normal" font-weight="normal" text-decoration="none" x="0" y="180">UNREGISTERED</text><text fill="#eeeeee" stroke="none" font-family="Arial" font-size="24px" font-style="normal" font-weight="normal" text-decoration="none" x="0" y="210">UNREGISTERED</text><text fill="#eeeeee" stroke="none" font-family="Arial" font-size="24px" font-style="normal" font-weight="normal" text-decoration="none" x="0" y="240">UNREGISTERED</text><text fill="#eeeeee" stroke="none" font-family="Arial" font-size="24px" font-style="normal" font-weight="normal" text-decoration="none" x="0" y="270">UNREGISTERED</text><text fill="#eeeeee" stroke="none" font-family="Arial" font-size="24px" font-style="normal" font-weight="normal" text-decoration="none" x="0" y="300">UNREGISTERED</text><text fill="#eeeeee" stroke="none" font-family="Arial" font-size="24px" font-style="normal" font-weight="normal" text-decoration="none" x="0" y="330">UNREGISTERED</text><text fill="#eeeeee" stroke="none" font-family="Arial" font-size="24px" font-style="normal" font-weight="normal" text-decoration="none" x="0" y="360">UNREGISTERED</text><text fill="#eeeeee" stroke="none" font-family="Arial" font-size="24px" font-style="normal" font-weight="normal" text-decoration="none" x="0" y="390">UNREGISTERED</text><text fill="#eeeeee" stroke="none" font-family="Arial" font-size="24px" font-style="normal" font-weight="normal" text-decoration="none" x="0" y="420">UNREGISTERED</text><text fill="#eeeeee" stroke="none" font-family="Arial" font-size="24px" font-style="normal" font-weight="normal" text-decoration="none" x="0" y="450">UNREGISTERED</text><text fill="#eeeeee" stroke="none" font-family="Arial" font-size="24px" font-style="normal" font-weight="normal" text-decoration="none" x="0" y="480">UNREGISTERED</text><text fill="#eeeeee" stroke="none" font-family="Arial" font-size="24px" font-style="normal" font-weight="normal" text-decoration="none" x="0" y="510">UNREGISTERED</text><text fill="#eeeeee" stroke="none" font-family="Arial" font-size="24px" font-style="normal" font-weight="normal" text-decoration="none" x="0" y="540">UNREGISTERED</text><text fill="#eeeeee" stroke="none" font-family="Arial" font-size="24px" font-style="normal" font-weight="normal" text-decoration="none" x="0" y="570">UNREGISTERED</text><text fill="#eeeeee" stroke="none" font-family="Arial" font-size="24px" font-style="normal" font-weight="normal" text-decoration="none" x="0" y="600">UNREGISTERED</text><text fill="#eeeeee" stroke="none" font-family="Arial" font-size="24px" font-style="normal" font-weight="normal" text-decoration="none" x="0" y="630">UNREGISTERED</text><text fill="#eeeeee" stroke="none" font-family="Arial" font-size="24px" font-style="normal" font-weight="normal" text-decoration="none" x="200" y="0">UNREGISTERED</text><text fill="#eeeeee" stroke="none" font-family="Arial" font-size="24px" font-style="normal" font-weight="normal" text-decoration="none" x="200" y="30">UNREGISTERED</text><text fill="#eeeeee" stroke="none" font-family="Arial" font-size="24px" font-style="normal" font-weight="normal" text-decoration="none" x="200" y="60">UNREGISTERED</text><text fill="#eeeeee" stroke="none" font-family="Arial" font-size="24px" font-style="normal" font-weight="normal" text-decoration="none" x="200" y="90">UNREGISTERED</text><text fill="#eeeeee" stroke="none" font-family="Arial" font-size="24px" font-style="normal" font-weight="normal" text-decoration="none" x="200" y="120">UNREGISTERED</text><text fill="#eeeeee" stroke="none" font-family="Arial" font-size="24px" font-style="normal" font-weight="normal" text-decoration="none" x="200" y="150">UNREGISTERED</text><text fill="#eeeeee" stroke="none" font-family="Arial" font-size="24px" font-style="normal" font-weight="normal" text-decoration="none" x="200" y="180">UNREGISTERED</text><text fill="#eeeeee" stroke="none" font-family="Arial" font-size="24px" font-style="normal" font-weight="normal" text-decoration="none" x="200" y="210">UNREGISTERED</text><text fill="#eeeeee" stroke="none" font-family="Arial" font-size="24px" font-style="normal" font-weight="normal" text-decoration="none" x="200" y="240">UNREGISTERED</text><text fill="#eeeeee" stroke="none" font-family="Arial" font-size="24px" font-style="normal" font-weight="normal" text-decoration="none" x="200" y="270">UNREGISTERED</text><text fill="#eeeeee" stroke="none" font-family="Arial" font-size="24px" font-style="normal" font-weight="normal" text-decoration="none" x="200" y="300">UNREGISTERED</text><text fill="#eeeeee" stroke="none" font-family="Arial" font-size="24px" font-style="normal" font-weight="normal" text-decoration="none" x="200" y="330">UNREGISTERED</text><text fill="#eeeeee" stroke="none" font-family="Arial" font-size="24px" font-style="normal" font-weight="normal" text-decoration="none" x="200" y="360">UNREGISTERED</text><text fill="#eeeeee" stroke="none" font-family="Arial" font-size="24px" font-style="normal" font-weight="normal" text-decoration="none" x="200" y="390">UNREGISTERED</text><text fill="#eeeeee" stroke="none" font-family="Arial" font-size="24px" font-style="normal" font-weight="normal" text-decoration="none" x="200" y="420">UNREGISTERED</text><text fill="#eeeeee" stroke="none" font-family="Arial" font-size="24px" font-style="normal" font-weight="normal" text-decoration="none" x="200" y="450">UNREGISTERED</text><text fill="#eeeeee" stroke="none" font-family="Arial" font-size="24px" font-style="normal" font-weight="normal" text-decoration="none" x="200" y="480">UNREGISTERED</text><text fill="#eeeeee" stroke="none" font-family="Arial" font-size="24px" font-style="normal" font-weight="normal" text-decoration="none" x="200" y="510">UNREGISTERED</text><text fill="#eeeeee" stroke="none" font-family="Arial" font-size="24px" font-style="normal" font-weight="normal" text-decoration="none" x="200" y="540">UNREGISTERED</text><text fill="#eeeeee" stroke="none" font-family="Arial" font-size="24px" font-style="normal" font-weight="normal" text-decoration="none" x="200" y="570">UNREGISTERED</text><text fill="#eeeeee" stroke="none" font-family="Arial" font-size="24px" font-style="normal" font-weight="normal" text-decoration="none" x="200" y="600">UNREGISTERED</text><text fill="#eeeeee" stroke="none" font-family="Arial" font-size="24px" font-style="normal" font-weight="normal" text-decoration="none" x="200" y="630">UNREGISTERED</text><text fill="#eeeeee" stroke="none" font-family="Arial" font-size="24px" font-style="normal" font-weight="normal" text-decoration="none" x="400" y="0">UNREGISTERED</text><text fill="#eeeeee" stroke="none" font-family="Arial" font-size="24px" font-style="normal" font-weight="normal" text-decoration="none" x="400" y="30">UNREGISTERED</text><text fill="#eeeeee" stroke="none" font-family="Arial" font-size="24px" font-style="normal" font-weight="normal" text-decoration="none" x="400" y="60">UNREGISTERED</text><text fill="#eeeeee" stroke="none" font-family="Arial" font-size="24px" font-style="normal" font-weight="normal" text-decoration="none" x="400" y="90">UNREGISTERED</text><text fill="#eeeeee" stroke="none" font-family="Arial" font-size="24px" font-style="normal" font-weight="normal" text-decoration="none" x="400" y="120">UNREGISTERED</text><text fill="#eeeeee" stroke="none" font-family="Arial" font-size="24px" font-style="normal" font-weight="normal" text-decoration="none" x="400" y="150">UNREGISTERED</text><text fill="#eeeeee" stroke="none" font-family="Arial" font-size="24px" font-style="normal" font-weight="normal" text-decoration="none" x="400" y="180">UNREGISTERED</text><text fill="#eeeeee" stroke="none" font-family="Arial" font-size="24px" font-style="normal" font-weight="normal" text-decoration="none" x="400" y="210">UNREGISTERED</text><text fill="#eeeeee" stroke="none" font-family="Arial" font-size="24px" font-style="normal" font-weight="normal" text-decoration="none" x="400" y="240">UNREGISTERED</text><text fill="#eeeeee" stroke="none" font-family="Arial" font-size="24px" font-style="normal" font-weight="normal" text-decoration="none" x="400" y="270">UNREGISTERED</text><text fill="#eeeeee" stroke="none" font-family="Arial" font-size="24px" font-style="normal" font-weight="normal" text-decoration="none" x="400" y="300">UNREGISTERED</text><text fill="#eeeeee" stroke="none" font-family="Arial" font-size="24px" font-style="normal" font-weight="normal" text-decoration="none" x="400" y="330">UNREGISTERED</text><text fill="#eeeeee" stroke="none" font-family="Arial" font-size="24px" font-style="normal" font-weight="normal" text-decoration="none" x="400" y="360">UNREGISTERED</text><text fill="#eeeeee" stroke="none" font-family="Arial" font-size="24px" font-style="normal" font-weight="normal" text-decoration="none" x="400" y="390">UNREGISTERED</text><text fill="#eeeeee" stroke="none" font-family="Arial" font-size="24px" font-style="normal" font-weight="normal" text-decoration="none" x="400" y="420">UNREGISTERED</text><text fill="#eeeeee" stroke="none" font-family="Arial" font-size="24px" font-style="normal" font-weight="normal" text-decoration="none" x="400" y="450">UNREGISTERED</text><text fill="#eeeeee" stroke="none" font-family="Arial" font-size="24px" font-style="normal" font-weight="normal" text-decoration="none" x="400" y="480">UNREGISTERED</text><text fill="#eeeeee" stroke="none" font-family="Arial" font-size="24px" font-style="normal" font-weight="normal" text-decoration="none" x="400" y="510">UNREGISTERED</text><text fill="#eeeeee" stroke="none" font-family="Arial" font-size="24px" font-style="normal" font-weight="normal" text-decoration="none" x="400" y="540">UNREGISTERED</text><text fill="#eeeeee" stroke="none" font-family="Arial" font-size="24px" font-style="normal" font-weight="normal" text-decoration="none" x="400" y="570">UNREGISTERED</text><text fill="#eeeeee" stroke="none" font-family="Arial" font-size="24px" font-style="normal" font-weight="normal" text-decoration="none" x="400" y="600">UNREGISTERED</text><text fill="#eeeeee" stroke="none" font-family="Arial" font-size="24px" font-style="normal" font-weight="normal" text-decoration="none" x="400" y="630">UNREGISTERED</text><text fill="#eeeeee" stroke="none" font-family="Arial" font-size="24px" font-style="normal" font-weight="normal" text-decoration="none" x="600" y="0">UNREGISTERED</text><text fill="#eeeeee" stroke="none" font-family="Arial" font-size="24px" font-style="normal" font-weight="normal" text-decoration="none" x="600" y="30">UNREGISTERED</text><text fill="#eeeeee" stroke="none" font-family="Arial" font-size="24px" font-style="normal" font-weight="normal" text-decoration="none" x="600" y="60">UNREGISTERED</text><text fill="#eeeeee" stroke="none" font-family="Arial" font-size="24px" font-style="normal" font-weight="normal" text-decoration="none" x="600" y="90">UNREGISTERED</text><text fill="#eeeeee" stroke="none" font-family="Arial" font-size="24px" font-style="normal" font-weight="normal" text-decoration="none" x="600" y="120">UNREGISTERED</text><text fill="#eeeeee" stroke="none" font-family="Arial" font-size="24px" font-style="normal" font-weight="normal" text-decoration="none" x="600" y="150">UNREGISTERED</text><text fill="#eeeeee" stroke="none" font-family="Arial" font-size="24px" font-style="normal" font-weight="normal" text-decoration="none" x="600" y="180">UNREGISTERED</text><text fill="#eeeeee" stroke="none" font-family="Arial" font-size="24px" font-style="normal" font-weight="normal" text-decoration="none" x="600" y="210">UNREGISTERED</text><text fill="#eeeeee" stroke="none" font-family="Arial" font-size="24px" font-style="normal" font-weight="normal" text-decoration="none" x="600" y="240">UNREGISTERED</text><text fill="#eeeeee" stroke="none" font-family="Arial" font-size="24px" font-style="normal" font-weight="normal" text-decoration="none" x="600" y="270">UNREGISTERED</text><text fill="#eeeeee" stroke="none" font-family="Arial" font-size="24px" font-style="normal" font-weight="normal" text-decoration="none" x="600" y="300">UNREGISTERED</text><text fill="#eeeeee" stroke="none" font-family="Arial" font-size="24px" font-style="normal" font-weight="normal" text-decoration="none" x="600" y="330">UNREGISTERED</text><text fill="#eeeeee" stroke="none" font-family="Arial" font-size="24px" font-style="normal" font-weight="normal" text-decoration="none" x="600" y="360">UNREGISTERED</text><text fill="#eeeeee" stroke="none" font-family="Arial" font-size="24px" font-style="normal" font-weight="normal" text-decoration="none" x="600" y="390">UNREGISTERED</text><text fill="#eeeeee" stroke="none" font-family="Arial" font-size="24px" font-style="normal" font-weight="normal" text-decoration="none" x="600" y="420">UNREGISTERED</text><text fill="#eeeeee" stroke="none" font-family="Arial" font-size="24px" font-style="normal" font-weight="normal" text-decoration="none" x="600" y="450">UNREGISTERED</text><text fill="#eeeeee" stroke="none" font-family="Arial" font-size="24px" font-style="normal" font-weight="normal" text-decoration="none" x="600" y="480">UNREGISTERED</text><text fill="#eeeeee" stroke="none" font-family="Arial" font-size="24px" font-style="normal" font-weight="normal" text-decoration="none" x="600" y="510">UNREGISTERED</text><text fill="#eeeeee" stroke="none" font-family="Arial" font-size="24px" font-style="normal" font-weight="normal" text-decoration="none" x="600" y="540">UNREGISTERED</text><text fill="#eeeeee" stroke="none" font-family="Arial" font-size="24px" font-style="normal" font-weight="normal" text-decoration="none" x="600" y="570">UNREGISTERED</text><text fill="#eeeeee" stroke="none" font-family="Arial" font-size="24px" font-style="normal" font-weight="normal" text-decoration="none" x="600" y="600">UNREGISTERED</text><text fill="#eeeeee" stroke="none" font-family="Arial" font-size="24px" font-style="normal" font-weight="normal" text-decoration="none" x="600" y="630">UNREGISTERED</text><g transform="translate(10,7) scale(1,1)"><path fill="#ffffff" stroke="none" d="M 0 121.5 L 74.64990234375 96 L 149.2998046875 121.5 L 74.64990234375 147 L 0 121.5"/></g><g transform="translate(10,7) scale(1,1)"><path fill="none" stroke="#000000" d="M 0 121.5 L 74.64990234375 96 L 149.2998046875 121.5 L 74.64990234375 147 L 0 121.5 L 0 121.5" stroke-miterlimit="10"/></g><g transform="translate(10,7) scale(1,1)"><g><path fill="none" stroke="none"/><text fill="#000000" stroke="none" font-family="Arial" font-size="13px" font-style="normal" font-weight="normal" text-decoration="none" x="61.6435546875" y="121.5">Post</text><text fill="#000000" stroke="none" font-family="Arial" font-size="13px" font-style="normal" font-weight="normal" text-decoration="none" x="37.074951171875" y="134.5">letter/parcel?</text></g></g><g transform="translate(10,7) scale(1,1)"><path fill="#ffffff" stroke="none" d="M 53.5 3 L 89.5 3 Q 119 3 119 32.5 L 119 31.5 Q 119 61 89.5 61 L 53.5 61 Q 24 61 24 31.5 L 24 32.5 Q 24 3 53.5 3 Z"/></g><g transform="translate(10,7) scale(1,1)"><path fill="none" stroke="#000000" d="M 53.5 3 L 89.5 3 Q 119 3 119 32.5 L 119 31.5 Q 119 61 89.5 61 L 53.5 61 Q 24 61 24 31.5 L 24 32.5 Q 24 3 53.5 3 Z" stroke-miterlimit="10"/></g><g transform="translate(10,7) scale(1,1)"><g><path fill="none" stroke="none"/><text fill="#000000" stroke="none" font-family="Arial" font-size="13px" font-style="normal" font-weight="normal" text-decoration="none" x="40.7900390625" y="25.5">Go to Post</text><text fill="#000000" stroke="none" font-family="Arial" font-size="13px" font-style="normal" font-weight="normal" text-decoration="none" x="54.640625" y="38.5">Office</text><text fill="#000000" stroke="none" font-family="Arial" font-size="13px" font-style="normal" font-weight="normal" text-decoration="none" x="42.23095703125" y="51.5">Reception</text></g></g><g transform="translate(10,7) scale(1,1)"><path fill="none" stroke="#000000" d="M 70 61 L 70 96" stroke-miterlimit="10"/></g><g transform="translate(10,7) scale(1,1)"><path fill="#000000" stroke="none" d="M 65.79048224398402 85.83732514237585 L 70 96 L 74.20951775601598 85.83732514237585"/></g><g transform="translate(10,7) scale(1,1)"><path fill="none" stroke="#000000" d="M 65.79048224398402 85.83732514237585 L 70 96 L 74.20951775601598 85.83732514237585 L 65.79048224398402 85.83732514237585" stroke-miterlimit="10"/></g><g transform="translate(10,7) scale(1,1)"><rect fill="#ffffff" stroke="none" x="232" y="104" width="87" height="58"/></g><g transform="translate(10,7) scale(1,1)"><path fill="none" stroke="#000000" d="M 232 104 L 319 104 L 319 162 L 232 162 L 232 104 Z Z" stroke-miterlimit="10"/></g><g transform="translate(10,7) scale(1,1)"><g><path fill="none" stroke="none"/><text fill="#000000" stroke="none" font-family="Arial" font-size="13px" font-style="normal" font-weight="normal" text-decoration="none" x="265.74365234375" y="126.5">Put</text><text fill="#000000" stroke="none" font-family="Arial" font-size="13px" font-style="normal" font-weight="normal" text-decoration="none" x="241.5400390625" y="139.5">letter/parcel</text><text fill="#000000" stroke="none" font-family="Arial" font-size="13px" font-style="normal" font-weight="normal" text-decoration="none" x="258.155029296875" y="152.5">in box</text></g></g><g transform="translate(10,7) scale(1,1)"><path fill="none" stroke="#000000" d="M 149 120 L 232 120" stroke-miterlimit="10"/></g><g transform="translate(10,7) scale(1,1)"><path fill="#000000" stroke="none" d="M 221.83732514237585 124.20951775601598 L 232 120 L 221.83732514237585 115.79048224398402"/></g><g transform="translate(10,7) scale(1,1)"><path fill="none" stroke="#000000" d="M 221.83732514237585 124.20951775601598 L 232 120 L 221.83732514237585 115.79048224398402 L 221.83732514237585 124.20951775601598" stroke-miterlimit="10"/></g><g transform="translate(10,7) scale(1,1)"><g><path fill="none" stroke="none"/><text fill="#000000" stroke="none" font-family="Arial" font-size="13px" font-style="normal" font-weight="normal" text-decoration="none" x="179.5" y="111.5">Yes</text></g></g><g transform="translate(10,7) scale(1,1)"><path fill="#ffffff" stroke="none" d="M 16 209.5 L 72.58447265625 184 L 129.1689453125 209.5 L 72.58447265625 235 L 16 209.5"/></g><g transform="translate(10,7) scale(1,1)"><path fill="none" stroke="#000000" d="M 16 209.5 L 72.58447265625 184 L 129.1689453125 209.5 L 72.58447265625 235 L 16 209.5 L 16 209.5" stroke-miterlimit="10"/></g><g transform="translate(10,7) scale(1,1)"><g><path fill="none" stroke="none"/><text fill="#000000" stroke="none" font-family="Arial" font-size="13px" font-style="normal" font-weight="normal" text-decoration="none" x="52.71630859375" y="209.5">Collect</text><text fill="#000000" stroke="none" font-family="Arial" font-size="13px" font-style="normal" font-weight="normal" text-decoration="none" x="56.68359375" y="222.5">post?</text></g></g><g transform="translate(10,7) scale(1,1)"><path fill="#ffffff" stroke="none" d="M 16 310.5 L 72.58447265625 272 L 129.1689453125 310.5 L 72.58447265625 349 L 16 310.5"/></g><g transform="translate(10,7) scale(1,1)"><path fill="none" stroke="#000000" d="M 16 310.5 L 72.58447265625 272 L 129.1689453125 310.5 L 72.58447265625 349 L 16 310.5 L 16 310.5" stroke-miterlimit="10"/></g><g transform="translate(10,7) scale(1,1)"><g><path fill="none" stroke="none"/><text fill="#000000" stroke="none" font-family="Arial" font-size="13px" font-style="normal" font-weight="normal" text-decoration="none" x="56.68359375" y="304">Open</text><text fill="#000000" stroke="none" font-family="Arial" font-size="13px" font-style="normal" font-weight="normal" text-decoration="none" x="50.54541015625" y="317">savings</text><text fill="#000000" stroke="none" font-family="Arial" font-size="13px" font-style="normal" font-weight="normal" text-decoration="none" x="46.20361328125" y="330">account?</text></g></g><g transform="translate(10,7) scale(1,1)"><path fill="none" stroke="#000000" d="M 69 147 L 69 184" stroke-miterlimit="10"/></g><g transform="translate(10,7) scale(1,1)"><path fill="#000000" stroke="none" d="M 64.79048224398402 173.83732514237585 L 69 184 L 73.20951775601598 173.83732514237585"/></g><g transform="translate(10,7) scale(1,1)"><path fill="none" stroke="#000000" d="M 64.79048224398402 173.83732514237585 L 69 184 L 73.20951775601598 173.83732514237585 L 64.79048224398402 173.83732514237585" stroke-miterlimit="10"/></g><g transform="translate(10,7) scale(1,1)"><g><path fill="none" stroke="none"/><text fill="#000000" stroke="none" font-family="Arial" font-size="13px" font-style="normal" font-weight="normal" text-decoration="none" x="74.5" y="170.5">No</text></g></g><g transform="translate(10,7) scale(1,1)"><path fill="none" stroke="#000000" d="M 72 235 L 72 272" stroke-miterlimit="10"/></g><g transform="translate(10,7) scale(1,1)"><path fill="#000000" stroke="none" d="M 67.79048224398402 261.83732514237585 L 72 272 L 76.20951775601598 261.83732514237585"/></g><g transform="translate(10,7) scale(1,1)"><path fill="none" stroke="#000000" d="M 67.79048224398402 261.83732514237585 L 72 272 L 76.20951775601598 261.83732514237585 L 67.79048224398402 261.83732514237585" stroke-miterlimit="10"/></g><g transform="translate(10,7) scale(1,1)"><g><path fill="none" stroke="none"/><text fill="#000000" stroke="none" font-family="Arial" font-size="13px" font-style="normal" font-weight="normal" text-decoration="none" x="77.5" y="258.5">No</text></g></g><g transform="translate(10,7) scale(1,1)"><path fill="#ffffff" stroke="none" d="M 16 446.5 L 72.58447265625 408 L 129.1689453125 446.5 L 72.58447265625 485 L 16 446.5"/></g><g transform="translate(10,7) scale(1,1)"><path fill="none" stroke="#000000" d="M 16 446.5 L 72.58447265625 408 L 129.1689453125 446.5 L 72.58447265625 485 L 16 446.5 L 16 446.5" stroke-miterlimit="10"/></g><g transform="translate(10,7) scale(1,1)"><g><path fill="none" stroke="none"/><text fill="#000000" stroke="none" font-family="Arial" font-size="13px" font-style="normal" font-weight="normal" text-decoration="none" x="61.384033203125" y="446.5">Pay</text><text fill="#000000" stroke="none" font-family="Arial" font-size="13px" font-style="normal" font-weight="normal" text-decoration="none" x="57.0517578125" y="459.5">Bills?</text></g></g><g transform="translate(10,7) scale(1,1)"><path fill="none" stroke="#000000" d="M 72 349 L 72 408" stroke-miterlimit="10"/></g><g transform="translate(10,7) scale(1,1)"><path fill="#000000" stroke="none" d="M 67.79048224398402 397.83732514237585 L 72 408 L 76.20951775601598 397.83732514237585"/></g><g transform="translate(10,7) scale(1,1)"><path fill="none" stroke="#000000" d="M 67.79048224398402 397.83732514237585 L 72 408 L 76.20951775601598 397.83732514237585 L 67.79048224398402 397.83732514237585" stroke-miterlimit="10"/></g><g transform="translate(10,7) scale(1,1)"><g><path fill="none" stroke="none"/><text fill="#000000" stroke="none" font-family="Arial" font-size="13px" font-style="normal" font-weight="normal" text-decoration="none" x="77.5" y="383.5">No</text></g></g><g transform="translate(10,7) scale(1,1)"><rect fill="#ffffff" stroke="none" x="200" y="184" width="96" height="58"/></g><g transform="translate(10,7) scale(1,1)"><path fill="none" stroke="#000000" d="M 200 184 L 296 184 L 296 242 L 200 242 L 200 184 Z Z" stroke-miterlimit="10"/></g><g transform="translate(10,7) scale(1,1)"><g><path fill="none" stroke="none"/><text fill="#000000" stroke="none" font-family="Arial" font-size="13px" font-style="normal" font-weight="normal" text-decoration="none" x="232.102294921875" y="206.5">Go to</text><text fill="#000000" stroke="none" font-family="Arial" font-size="13px" font-style="normal" font-weight="normal" text-decoration="none" x="217.65185546875" y="219.5">collections</text><text fill="#000000" stroke="none" font-family="Arial" font-size="13px" font-style="normal" font-weight="normal" text-decoration="none" x="234.27001953125" y="232.5">desk</text></g></g><g transform="translate(10,7) scale(1,1)"><path fill="none" stroke="#000000" d="M 129 212 L 200 212" stroke-miterlimit="10"/></g><g transform="translate(10,7) scale(1,1)"><path fill="#000000" stroke="none" d="M 189.83732514237585 216.209517756016 L 200 212 L 189.83732514237585 207.790482243984"/></g><g transform="translate(10,7) scale(1,1)"><path fill="none" stroke="#000000" d="M 189.83732514237585 216.209517756016 L 200 212 L 189.83732514237585 207.790482243984 L 189.83732514237585 216.209517756016" stroke-miterlimit="10"/></g><g transform="translate(10,7) scale(1,1)"><g><path fill="none" stroke="none"/><text fill="#000000" stroke="none" font-family="Arial" font-size="13px" font-style="normal" font-weight="normal" text-decoration="none" x="153.5" y="203.5">Yes</text></g></g><g transform="translate(10,7) scale(1,1)"><rect fill="#ffffff" stroke="none" x="16" y="536" width="136.06982421875" height="40"/></g><g transform="translate(10,7) scale(1,1)"><path fill="none" stroke="#000000" d="M 16 536 L 152.06982421875 536 L 152.06982421875 576 L 16 576 L 16 536 Z Z" stroke-miterlimit="10"/></g><g transform="translate(10,7) scale(1,1)"><path fill="none" stroke="#000000" d="M 21 536 L 21 576" stroke-miterlimit="10"/></g><g transform="translate(10,7) scale(1,1)"><path fill="none" stroke="#000000" d="M 147.06982421875 536 L 147.06982421875 576" stroke-miterlimit="10"/></g><g transform="translate(10,7) scale(1,1)"><g><path fill="none" stroke="none"/><text fill="#000000" stroke="none" font-family="Arial" font-size="13px" font-style="normal" font-weight="normal" text-decoration="none" x="37.04541015625" y="558.5">Pay Bills process</text></g></g><g transform="translate(10,7) scale(1,1)"><path fill="none" stroke="#000000" d="M 77 485 L 77 536" stroke-miterlimit="10"/></g><g transform="translate(10,7) scale(1,1)"><path fill="#000000" stroke="none" d="M 72.79048224398402 525.8373251423759 L 77 536 L 81.20951775601598 525.8373251423759"/></g><g transform="translate(10,7) scale(1,1)"><path fill="none" stroke="#000000" d="M 72.79048224398402 525.8373251423759 L 77 536 L 81.20951775601598 525.8373251423759 L 72.79048224398402 525.8373251423759" stroke-miterlimit="10"/></g><g transform="translate(10,7) scale(1,1)"><g><path fill="none" stroke="none"/><text fill="#000000" stroke="none" font-family="Arial" font-size="13px" font-style="normal" font-weight="normal" text-decoration="none" x="80.5" y="515.5">Yes</text></g></g><g transform="translate(10,7) scale(1,1)"><path fill="#ffffff" stroke="none" d="M 564 600 L 659 600 Q 679 600 679 620 L 679 619 Q 679 639 659 639 L 564 639 Q 544 639 544 619 L 544 620 Q 544 600 564 600 Z"/></g><g transform="translate(10,7) scale(1,1)"><path fill="none" stroke="#000000" d="M 564 600 L 659 600 Q 679 600 679 620 L 679 619 Q 679 639 659 639 L 564 639 Q 544 639 544 619 L 544 620 Q 544 600 564 600 Z" stroke-miterlimit="10"/></g><g transform="translate(10,7) scale(1,1)"><g><path fill="none" stroke="none"/><text fill="#000000" stroke="none" font-family="Arial" font-size="13px" font-style="normal" font-weight="normal" text-decoration="none" x="560.3125" y="622.5">Leave Post Office</text></g></g><g transform="translate(10,7) scale(1,1)"><g><path fill="none" stroke="none"/><text fill="#000000" stroke="none" font-family="Arial" font-size="13px" font-style="normal" font-weight="normal" text-decoration="none" x="141" y="418">No</text></g></g><g transform="translate(10,7) scale(1,1)"><rect fill="#ffffff" stroke="none" x="224" y="272" width="95" height="58"/></g><g transform="translate(10,7) scale(1,1)"><path fill="none" stroke="#000000" d="M 224 272 L 319 272 L 319 330 L 224 330 L 224 272 Z Z" stroke-miterlimit="10"/></g><g transform="translate(10,7) scale(1,1)"><g><path fill="none" stroke="none"/><text fill="#000000" stroke="none" font-family="Arial" font-size="13px" font-style="normal" font-weight="normal" text-decoration="none" x="255.602294921875" y="294.5">Go to</text><text fill="#000000" stroke="none" font-family="Arial" font-size="13px" font-style="normal" font-weight="normal" text-decoration="none" x="244.77001953125" y="307.5">customer</text><text fill="#000000" stroke="none" font-family="Arial" font-size="13px" font-style="normal" font-weight="normal" text-decoration="none" x="235.37548828125" y="320.5">service desk</text></g></g><g transform="translate(10,7) scale(1,1)"><path fill="none" stroke="#000000" d="M 129 307 L 224 307" stroke-miterlimit="10"/></g><g transform="translate(10,7) scale(1,1)"><path fill="#000000" stroke="none" d="M 213.83732514237585 311.209517756016 L 224 307 L 213.83732514237585 302.790482243984"/></g><g transform="translate(10,7) scale(1,1)"><path fill="none" stroke="#000000" d="M 213.83732514237585 311.209517756016 L 224 307 L 213.83732514237585 302.790482243984 L 213.83732514237585 311.209517756016" stroke-miterlimit="10"/></g><g transform="translate(10,7) scale(1,1)"><g><path fill="none" stroke="none"/><text fill="#000000" stroke="none" font-family="Arial" font-size="13px" font-style="normal" font-weight="normal" text-decoration="none" x="165.5" y="298.5">Yes</text></g></g><g transform="translate(10,7) scale(1,1)"><path fill="#ffffff" stroke="none" d="M 328 214.5 L 384.58447265625 176 L 441.1689453125 214.5 L 384.58447265625 253 L 328 214.5"/></g><g transform="translate(10,7) scale(1,1)"><path fill="none" stroke="#000000" d="M 328 214.5 L 384.58447265625 176 L 441.1689453125 214.5 L 384.58447265625 253 L 328 214.5 L 328 214.5" stroke-miterlimit="10"/></g><g transform="translate(10,7) scale(1,1)"><g><path fill="none" stroke="none"/><text fill="#000000" stroke="none" font-family="Arial" font-size="13px" font-style="normal" font-weight="normal" text-decoration="none" x="362.18994140625" y="214.5">Custom</text><text fill="#000000" stroke="none" font-family="Arial" font-size="13px" font-style="normal" font-weight="normal" text-decoration="none" x="371.219482421875" y="227.5">Duty</text></g></g><g transform="translate(10,7) scale(1,1)"><rect fill="#ffffff" stroke="none" x="472" y="192" width="87" height="45"/></g><g transform="translate(10,7) scale(1,1)"><path fill="none" stroke="#000000" d="M 472 192 L 559 192 L 559 237 L 472 237 L 472 192 Z Z" stroke-miterlimit="10"/></g><g transform="translate(10,7) scale(1,1)"><g><path fill="none" stroke="none"/><text fill="#000000" stroke="none" font-family="Arial" font-size="13px" font-style="normal" font-weight="normal" text-decoration="none" x="492.016845703125" y="214.5">Receive</text><text fill="#000000" stroke="none" font-family="Arial" font-size="13px" font-style="normal" font-weight="normal" text-decoration="none" x="503.214111328125" y="227.5">post</text></g></g><g transform="translate(10,7) scale(1,1)"><path fill="none" stroke="#000000" d="M 296 214 L 328 214" stroke-miterlimit="10"/></g><g transform="translate(10,7) scale(1,1)"><path fill="#000000" stroke="none" d="M 317.83732514237585 218.209517756016 L 328 214 L 317.83732514237585 209.790482243984"/></g><g transform="translate(10,7) scale(1,1)"><path fill="none" stroke="#000000" d="M 317.83732514237585 218.209517756016 L 328 214 L 317.83732514237585 209.790482243984 L 317.83732514237585 218.209517756016" stroke-miterlimit="10"/></g><g transform="translate(10,7) scale(1,1)"><path fill="none" stroke="#000000" d="M 441 214 L 472 214" stroke-miterlimit="10"/></g><g transform="translate(10,7) scale(1,1)"><path fill="#000000" stroke="none" d="M 461.83732514237585 218.209517756016 L 472 214 L 461.83732514237585 209.790482243984"/></g><g transform="translate(10,7) scale(1,1)"><path fill="none" stroke="#000000" d="M 461.83732514237585 218.209517756016 L 472 214 L 461.83732514237585 209.790482243984 L 461.83732514237585 218.209517756016" stroke-miterlimit="10"/></g><g transform="translate(10,7) scale(1,1)"><g><path fill="none" stroke="none"/><text fill="#000000" stroke="none" font-family="Arial" font-size="13px" font-style="normal" font-weight="normal" text-decoration="none" x="438.5" y="204.5">No</text></g></g><g transform="translate(10,7) scale(1,1)"><rect fill="#ffffff" stroke="none" x="488" y="56" width="79" height="47"/></g><g transform="translate(10,7) scale(1,1)"><path fill="none" stroke="#000000" d="M 488 56 L 567 56 L 567 103 L 488 103 L 488 56 Z Z" stroke-miterlimit="10"/></g><g transform="translate(10,7) scale(1,1)"><g><path fill="none" stroke="none"/><text fill="#000000" stroke="none" font-family="Arial" font-size="13px" font-style="normal" font-weight="normal" text-decoration="none" x="516.299560546875" y="78.5">Pay</text><text fill="#000000" stroke="none" font-family="Arial" font-size="13px" font-style="normal" font-weight="normal" text-decoration="none" x="505.102294921875" y="91.5">Cashier</text></g></g><g transform="translate(10,7) scale(1,1)"><path fill="none" stroke="#000000" d="M 384 176 L 384 80 M 384 80 A 8 8 0 0 1 392 72 L 488 72" stroke-miterlimit="10"/></g><g transform="translate(10,7) scale(1,1)"><path fill="#000000" stroke="none" d="M 477.83732514237585 76.20951775601598 L 488 72 L 477.83732514237585 67.79048224398402"/></g><g transform="translate(10,7) scale(1,1)"><path fill="none" stroke="#000000" d="M 477.83732514237585 76.20951775601598 L 488 72 L 477.83732514237585 67.79048224398402 L 477.83732514237585 76.20951775601598" stroke-miterlimit="10"/></g><g transform="translate(10,7) scale(1,1)"><g><path fill="none" stroke="none"/><text fill="#000000" stroke="none" font-family="Arial" font-size="13px" font-style="normal" font-weight="normal" text-decoration="none" x="423.5" y="61.5">Yes</text></g></g><g transform="translate(10,7) scale(1,1)"><path fill="none" stroke="#000000" d="M 527 103 L 527 192" stroke-miterlimit="10"/></g><g transform="translate(10,7) scale(1,1)"><path fill="#000000" stroke="none" d="M 522.790482243984 181.83732514237585 L 527 192 L 531.209517756016 181.83732514237585"/></g><g transform="translate(10,7) scale(1,1)"><path fill="none" stroke="#000000" d="M 522.790482243984 181.83732514237585 L 527 192 L 531.209517756016 181.83732514237585 L 522.790482243984 181.83732514237585" stroke-miterlimit="10"/></g><g transform="translate(10,7) scale(1,1)"><path fill="#ffffff" stroke="none" d="M 232 369 L 304 360 L 304 418 L 232 418 L 232 369"/></g><g transform="translate(10,7) scale(1,1)"><path fill="none" stroke="#000000" d="M 232 369 L 304 360 L 304 418 L 232 418 L 232 369 L 232 369" stroke-miterlimit="10"/></g><g transform="translate(10,7) scale(1,1)"><g><path fill="none" stroke="none"/><text fill="#000000" stroke="none" font-family="Arial" font-size="13px" font-style="normal" font-weight="normal" text-decoration="none" x="253.543212890625" y="387">Input</text><text fill="#000000" stroke="none" font-family="Arial" font-size="13px" font-style="normal" font-weight="normal" text-decoration="none" x="243.06640625" y="400">personal</text><text fill="#000000" stroke="none" font-family="Arial" font-size="13px" font-style="normal" font-weight="normal" text-decoration="none" x="257.158203125" y="413">Info</text></g></g><g transform="translate(10,7) scale(1,1)"><path fill="#ffffff" stroke="none" d="M 234 448 L 327 448 L 309 519 L 216 519 L 234 448"/></g><g transform="translate(10,7) scale(1,1)"><path fill="none" stroke="#000000" d="M 234 448 L 327 448 L 309 519 L 216 519 L 234 448 L 234 448" stroke-miterlimit="10"/></g><g transform="translate(10,7) scale(1,1)"><g><path fill="none" stroke="none"/><text fill="#000000" stroke="none" font-family="Arial" font-size="13px" font-style="normal" font-weight="normal" text-decoration="none" x="248.37548828125" y="470.5">Savings</text><text fill="#000000" stroke="none" font-family="Arial" font-size="13px" font-style="normal" font-weight="normal" text-decoration="none" x="248.013671875" y="483.5">Account</text><text fill="#000000" stroke="none" font-family="Arial" font-size="13px" font-style="normal" font-weight="normal" text-decoration="none" x="252.7109375" y="496.5">details</text><text fill="#000000" stroke="none" font-family="Arial" font-size="13px" font-style="normal" font-weight="normal" text-decoration="none" x="249.819580078125" y="509.5">created</text></g></g><g transform="translate(10,7) scale(1,1)"><path fill="#ffffff" stroke="none" d="M 560 342.5 L 620 304 L 680 342.5 L 620 381 L 560 342.5"/></g><g transform="translate(10,7) scale(1,1)"><path fill="none" stroke="#000000" d="M 560 342.5 L 620 304 L 680 342.5 L 620 381 L 560 342.5 L 560 342.5" stroke-miterlimit="10"/></g><g transform="translate(10,7) scale(1,1)"><g><path fill="none" stroke="none"/><text fill="#000000" stroke="none" font-family="Arial" font-size="13px" font-style="normal" font-weight="normal" text-decoration="none" x="596.885009765625" y="336">Perform</text><text fill="#000000" stroke="none" font-family="Arial" font-size="13px" font-style="normal" font-weight="normal" text-decoration="none" x="597.95458984375" y="349">another</text><text fill="#000000" stroke="none" font-family="Arial" font-size="13px" font-style="normal" font-weight="normal" text-decoration="none" x="604.464111328125" y="362">task?</text></g></g><g transform="translate(10,7) scale(1,1)"><path fill="none" stroke="#000000" d="M 270 330 L 270 360" stroke-miterlimit="10"/></g><g transform="translate(10,7) scale(1,1)"><path fill="#000000" stroke="none" d="M 265.790482243984 349.83732514237585 L 270 360 L 274.209517756016 349.83732514237585"/></g><g transform="translate(10,7) scale(1,1)"><path fill="none" stroke="#000000" d="M 265.790482243984 349.83732514237585 L 270 360 L 274.209517756016 349.83732514237585 L 265.790482243984 349.83732514237585" stroke-miterlimit="10"/></g><g transform="translate(10,7) scale(1,1)"><path fill="none" stroke="#000000" d="M 269 418 L 269 448" stroke-miterlimit="10"/></g><g transform="translate(10,7) scale(1,1)"><path fill="#000000" stroke="none" d="M 264.790482243984 437.83732514237585 L 269 448 L 273.209517756016 437.83732514237585"/></g><g transform="translate(10,7) scale(1,1)"><path fill="none" stroke="#000000" d="M 264.790482243984 437.83732514237585 L 269 448 L 273.209517756016 437.83732514237585 L 264.790482243984 437.83732514237585" stroke-miterlimit="10"/></g><g transform="translate(10,7) scale(1,1)"><path fill="none" stroke="#000000" d="M 624 381 L 624 600" stroke-miterlimit="10"/></g><g transform="translate(10,7) scale(1,1)"><path fill="#000000" stroke="none" d="M 619.790482243984 589.8373251423759 L 624 600 L 628.209517756016 589.8373251423759"/></g><g transform="translate(10,7) scale(1,1)"><path fill="none" stroke="#000000" d="M 619.790482243984 589.8373251423759 L 624 600 L 628.209517756016 589.8373251423759 L 619.790482243984 589.8373251423759" stroke-miterlimit="10"/></g><g transform="translate(10,7) scale(1,1)"><path fill="none" stroke="#000000" d="M 520 237 L 520 280 M 520 280 A 8 8 0 0 1 512 288 L 486 288 M 486 288 A 8 8 0 0 0 478 296 L 478 328" stroke-miterlimit="10"/></g><g transform="translate(10,7) scale(1,1)"><path fill="#000000" stroke="none" d="M 473.790482243984 317.83732514237585 L 478 328 L 482.209517756016 317.83732514237585"/></g><g transform="translate(10,7) scale(1,1)"><path fill="none" stroke="#000000" d="M 473.790482243984 317.83732514237585 L 478 328 L 482.209517756016 317.83732514237585 L 473.790482243984 317.83732514237585" stroke-miterlimit="10"/></g><g transform="translate(10,7) scale(1,1)"><path fill="#ffffff" stroke="none" d="M 248 606.5 C 248 598.4918704 254.9395856 592 263.5 592 C 272.0604144 592 279 598.4918704 279 606.5 C 279 614.5081296 272.0604144 621 263.5 621 C 254.9395856 621 248 614.5081296 248 606.5 Z"/></g><g transform="translate(10,7) scale(1,1)"><path fill="none" stroke="#000000" d="M 248 606.5 C 248 598.4918704 254.9395856 592 263.5 592 C 272.0604144 592 279 598.4918704 279 606.5 C 279 614.5081296 272.0604144 621 263.5 621 C 254.9395856 621 248 614.5081296 248 606.5 Z" stroke-miterlimit="10"/></g><g transform="translate(10,7) scale(1,1)"><g><path fill="none" stroke="none"/></g></g><g transform="translate(10,7) scale(1,1)"><path fill="none" stroke="#000000" d="M 80 576 L 80 598 M 80 598 A 8 8 0 0 0 88 606 L 248 606" stroke-miterlimit="10"/></g><g transform="translate(10,7) scale(1,1)"><path fill="#000000" stroke="none" d="M 237.83732514237585 610.209517756016 L 248 606 L 237.83732514237585 601.790482243984"/></g><g transform="translate(10,7) scale(1,1)"><path fill="none" stroke="#000000" d="M 237.83732514237585 610.209517756016 L 248 606 L 237.83732514237585 601.790482243984 L 237.83732514237585 610.209517756016" stroke-miterlimit="10"/></g><g transform="translate(10,7) scale(1,1)"><path fill="none" stroke="#000000" d="M 269 519 L 269 592" stroke-miterlimit="10"/></g><g transform="translate(10,7) scale(1,1)"><path fill="#000000" stroke="none" d="M 264.790482243984 581.8373251423759 L 269 592 L 273.209517756016 581.8373251423759"/></g><g transform="translate(10,7) scale(1,1)"><path fill="none" stroke="#000000" d="M 264.790482243984 581.8373251423759 L 269 592 L 273.209517756016 581.8373251423759 L 264.790482243984 581.8373251423759" stroke-miterlimit="10"/></g><g transform="translate(10,7) scale(1,1)"><path fill="none" stroke="#000000" d="M 279 608 L 432 608 M 432 608 A 8 8 0 0 0 440 600 L 440 352 M 440 352 A 8 8 0 0 1 448 344 L 560 344" stroke-miterlimit="10"/></g><g transform="translate(10,7) scale(1,1)"><path fill="#000000" stroke="none" d="M 549.8373251423759 348.209517756016 L 560 344 L 549.8373251423758 339.790482243984"/></g><g transform="translate(10,7) scale(1,1)"><path fill="none" stroke="#000000" d="M 549.8373251423759 348.209517756016 L 560 344 L 549.8373251423758 339.790482243984 L 549.8373251423759 348.209517756016" stroke-miterlimit="10"/></g><g transform="translate(10,7) scale(1,1)"><g><path fill="none" stroke="none"/><text fill="#000000" stroke="none" font-family="Arial" font-size="13px" font-style="normal" font-weight="normal" text-decoration="none" x="597" y="490">No</text></g></g><g transform="translate(10,7) scale(1,1)"><g><path fill="none" stroke="none"/></g></g><g transform="translate(10,7) scale(1,1)"><path fill="none" stroke="#000000" d="M 624 304 L 624 40 M 624 40 A 8 8 0 0 0 616 32 L 119 32" stroke-miterlimit="10"/></g><g transform="translate(10,7) scale(1,1)"><path fill="#000000" stroke="none" d="M 129.16267485762415 27.790482243984012 L 119 32 L 129.16267485762415 36.209517756015984"/></g><g transform="translate(10,7) scale(1,1)"><path fill="none" stroke="#000000" d="M 129.16267485762415 27.790482243984012 L 119 32 L 129.16267485762415 36.209517756015984 L 129.16267485762415 27.790482243984012" stroke-miterlimit="10"/></g><g transform="translate(10,7) scale(1,1)"><path fill="#ffffff" stroke="none" d="M 464 342.5 C 464 334.4918704 470.4918704 328 478.5 328 C 486.5081296 328 493 334.4918704 493 342.5 C 493 350.5081296 486.5081296 357 478.5 357 C 470.4918704 357 464 350.5081296 464 342.5 Z"/></g><g transform="translate(10,7) scale(1,1)"><path fill="none" stroke="#000000" d="M 464 342.5 C 464 334.4918704 470.4918704 328 478.5 328 C 486.5081296 328 493 334.4918704 493 342.5 C 493 350.5081296 486.5081296 357 478.5 357 C 470.4918704 357 464 350.5081296 464 342.5 Z" stroke-miterlimit="10"/></g><g transform="translate(10,7) scale(1,1)"><g><path fill="none" stroke="none"/></g></g></g></svg>