<svg version="1.1" xmlns="http://www.w3.org/2000/svg" xmlns:xlink="http://www.w3.org/1999/xlink" width="629" height="883"><defs/><g><text fill="#eeeeee" stroke="none" font-family="Arial" font-size="24px" font-style="normal" font-weight="normal" text-decoration="none" x="0" y="0">UNREGISTERED</text><text fill="#eeeeee" stroke="none" font-family="Arial" font-size="24px" font-style="normal" font-weight="normal" text-decoration="none" x="0" y="30">UNREGISTERED</text><text fill="#eeeeee" stroke="none" font-family="Arial" font-size="24px" font-style="normal" font-weight="normal" text-decoration="none" x="0" y="60">UNREGISTERED</text><text fill="#eeeeee" stroke="none" font-family="Arial" font-size="24px" font-style="normal" font-weight="normal" text-decoration="none" x="0" y="90">UNREGISTERED</text><text fill="#eeeeee" stroke="none" font-family="Arial" font-size="24px" font-style="normal" font-weight="normal" text-decoration="none" x="0" y="120">UNREGISTERED</text><text fill="#eeeeee" stroke="none" font-family="Arial" font-size="24px" font-style="normal" font-weight="normal" text-decoration="none" x="0" y="150">UNREGISTERED</text><text fill="#eeeeee" stroke="none" font-family="Arial" font-size="24px" font-style="normal" font-weight="normal" text-decoration="none" x="0" y="180">UNREGISTERED</text><text fill="#eeeeee" stroke="none" font-family="Arial" font-size="24px" font-style="normal" font-weight="normal" text-decoration="none" x="0" y="210">UNREGISTERED</text><text fill="#eeeeee" stroke="none" font-family="Arial" font-size="24px" font-style="normal" font-weight="normal" text-decoration="none" x="0" y="240">UNREGISTERED</text><text fill="#eeeeee" stroke="none" font-family="Arial" font-size="24px" font-style="normal" font-weight="normal" text-decoration="none" x="0" y="270">UNREGISTERED</text><text fill="#eeeeee" stroke="none" font-family="Arial" font-size="24px" font-style="normal" font-weight="normal" text-decoration="none" x="0" y="300">UNREGISTERED</text><text fill="#eeeeee" stroke="none" font-family="Arial" font-size="24px" font-style="normal" font-weight="normal" text-decoration="none" x="0" y="330">UNREGISTERED</text><text fill="#eeeeee" stroke="none" font-family="Arial" font-size="24px" font-style="normal" font-weight="normal" text-decoration="none" x="0" y="360">UNREGISTERED</text><text fill="#eeeeee" stroke="none" font-family="Arial" font-size="24px" font-style="normal" font-weight="normal" text-decoration="none" x="0" y="390">UNREGISTERED</text><text fill="#eeeeee" stroke="none" font-family="Arial" font-size="24px" font-style="normal" font-weight="normal" text-decoration="none" x="0" y="420">UNREGISTERED</text><text fill="#eeeeee" stroke="none" font-family="Arial" font-size="24px" font-style="normal" font-weight="normal" text-decoration="none" x="0" y="450">UNREGISTERED</text><text fill="#eeeeee" stroke="none" font-family="Arial" font-size="24px" font-style="normal" font-weight="normal" text-decoration="none" x="0" y="480">UNREGISTERED</text><text fill="#eeeeee" stroke="none" font-family="Arial" font-size="24px" font-style="normal" font-weight="normal" text-decoration="none" x="0" y="510">UNREGISTERED</text><text fill="#eeeeee" stroke="none" font-family="Arial" font-size="24px" font-style="normal" font-weight="normal" text-decoration="none" x="0" y="540">UNREGISTERED</text><text fill="#eeeeee" stroke="none" font-family="Arial" font-size="24px" font-style="normal" font-weight="normal" text-decoration="none" x="0" y="570">UNREGISTERED</text><text fill="#eeeeee" stroke="none" font-family="Arial" font-size="24px" font-style="normal" font-weight="normal" text-decoration="none" x="0" y="600">UNREGISTERED</text><text fill="#eeeeee" stroke="none" font-family="Arial" font-size="24px" font-style="normal" font-weight="normal" text-decoration="none" x="0" y="630">UNREGISTERED</text><text fill="#eeeeee" stroke="none" font-family="Arial" font-size="24px" font-style="normal" font-weight="normal" text-decoration="none" x="0" y="660">UNREGISTERED</text><text fill="#eeeeee" stroke="none" font-family="Arial" font-size="24px" font-style="normal" font-weight="normal" text-decoration="none" x="0" y="690">UNREGISTERED</text><text fill="#eeeeee" stroke="none" font-family="Arial" font-size="24px" font-style="normal" font-weight="normal" text-decoration="none" x="0" y="720">UNREGISTERED</text><text fill="#eeeeee" stroke="none" font-family="Arial" font-size="24px" font-style="normal" font-weight="normal" text-decoration="none" x="0" y="750">UNREGISTERED</text><text fill="#eeeeee" stroke="none" font-family="Arial" font-size="24px" font-style="normal" font-weight="normal" text-decoration="none" x="0" y="780">UNREGISTERED</text><text fill="#eeeeee" stroke="none" font-family="Arial" font-size="24px" font-style="normal" font-weight="normal" text-decoration="none" x="0" y="810">UNREGISTERED</text><text fill="#eeeeee" stroke="none" font-family="Arial" font-size="24px" font-style="normal" font-weight="normal" text-decoration="none" x="0" y="840">UNREGISTERED</text><text fill="#eeeeee" stroke="none" font-family="Arial" font-size="24px" font-style="normal" font-weight="normal" text-decoration="none" x="0" y="870">UNREGISTERED</text><text fill="#eeeeee" stroke="none" font-family="Arial" font-size="24px" font-style="normal" font-weight="normal" text-decoration="none" x="200" y="0">UNREGISTERED</text><text fill="#eeeeee" stroke="none" font-family="Arial" font-size="24px" font-style="normal" font-weight="normal" text-decoration="none" x="200" y="30">UNREGISTERED</text><text fill="#eeeeee" stroke="none" font-family="Arial" font-size="24px" font-style="normal" font-weight="normal" text-decoration="none" x="200" y="60">UNREGISTERED</text><text fill="#eeeeee" stroke="none" font-family="Arial" font-size="24px" font-style="normal" font-weight="normal" text-decoration="none" x="200" y="90">UNREGISTERED</text><text fill="#eeeeee" stroke="none" font-family="Arial" font-size="24px" font-style="normal" font-weight="normal" text-decoration="none" x="200" y="120">UNREGISTERED</text><text fill="#eeeeee" stroke="none" font-family="Arial" font-size="24px" font-style="normal" font-weight="normal" text-decoration="none" x="200" y="150">UNREGISTERED</text><text fill="#eeeeee" stroke="none" font-family="Arial" font-size="24px" font-style="normal" font-weight="normal" text-decoration="none" x="200" y="180">UNREGISTERED</text><text fill="#eeeeee" stroke="none" font-family="Arial" font-size="24px" font-style="normal" font-weight="normal" text-decoration="none" x="200" y="210">UNREGISTERED</text><text fill="#eeeeee" stroke="none" font-family="Arial" font-size="24px" font-style="normal" font-weight="normal" text-decoration="none" x="200" y="240">UNREGISTERED</text><text fill="#eeeeee" stroke="none" font-family="Arial" font-size="24px" font-style="normal" font-weight="normal" text-decoration="none" x="200" y="270">UNREGISTERED</text><text fill="#eeeeee" stroke="none" font-family="Arial" font-size="24px" font-style="normal" font-weight="normal" text-decoration="none" x="200" y="300">UNREGISTERED</text><text fill="#eeeeee" stroke="none" font-family="Arial" font-size="24px" font-style="normal" font-weight="normal" text-decoration="none" x="200" y="330">UNREGISTERED</text><text fill="#eeeeee" stroke="none" font-family="Arial" font-size="24px" font-style="normal" font-weight="normal" text-decoration="none" x="200" y="360">UNREGISTERED</text><text fill="#eeeeee" stroke="none" font-family="Arial" font-size="24px" font-style="normal" font-weight="normal" text-decoration="none" x="200" y="390">UNREGISTERED</text><text fill="#eeeeee" stroke="none" font-family="Arial" font-size="24px" font-style="normal" font-weight="normal" text-decoration="none" x="200" y="420">UNREGISTERED</text><text fill="#eeeeee" stroke="none" font-family="Arial" font-size="24px" font-style="normal" font-weight="normal" text-decoration="none" x="200" y="450">UNREGISTERED</text><text fill="#eeeeee" stroke="none" font-family="Arial" font-size="24px" font-style="normal" font-weight="normal" text-decoration="none" x="200" y="480">UNREGISTERED</text><text fill="#eeeeee" stroke="none" font-family="Arial" font-size="24px" font-style="normal" font-weight="normal" text-decoration="none" x="200" y="510">UNREGISTERED</text><text fill="#eeeeee" stroke="none" font-family="Arial" font-size="24px" font-style="normal" font-weight="normal" text-decoration="none" x="200" y="540">UNREGISTERED</text><text fill="#eeeeee" stroke="none" font-family="Arial" font-size="24px" font-style="normal" font-weight="normal" text-decoration="none" x="200" y="570">UNREGISTERED</text><text fill="#eeeeee" stroke="none" font-family="Arial" font-size="24px" font-style="normal" font-weight="normal" text-decoration="none" x="200" y="600">UNREGISTERED</text><text fill="#eeeeee" stroke="none" font-family="Arial" font-size="24px" font-style="normal" font-weight="normal" text-decoration="none" x="200" y="630">UNREGISTERED</text><text fill="#eeeeee" stroke="none" font-family="Arial" font-size="24px" font-style="normal" font-weight="normal" text-decoration="none" x="200" y="660">UNREGISTERED</text><text fill="#eeeeee" stroke="none" font-family="Arial" font-size="24px" font-style="normal" font-weight="normal" text-decoration="none" x="200" y="690">UNREGISTERED</text><text fill="#eeeeee" stroke="none" font-family="Arial" font-size="24px" font-style="normal" font-weight="normal" text-decoration="none" x="200" y="720">UNREGISTERED</text><text fill="#eeeeee" stroke="none" font-family="Arial" font-size="24px" font-style="normal" font-weight="normal" text-decoration="none" x="200" y="750">UNREGISTERED</text><text fill="#eeeeee" stroke="none" font-family="Arial" font-size="24px" font-style="normal" font-weight="normal" text-decoration="none" x="200" y="780">UNREGISTERED</text><text fill="#eeeeee" stroke="none" font-family="Arial" font-size="24px" font-style="normal" font-weight="normal" text-decoration="none" x="200" y="810">UNREGISTERED</text><text fill="#eeeeee" stroke="none" font-family="Arial" font-size="24px" font-style="normal" font-weight="normal" text-decoration="none" x="200" y="840">UNREGISTERED</text><text fill="#eeeeee" stroke="none" font-family="Arial" font-size="24px" font-style="normal" font-weight="normal" text-decoration="none" x="200" y="870">UNREGISTERED</text><text fill="#eeeeee" stroke="none" font-family="Arial" font-size="24px" font-style="normal" font-weight="normal" text-decoration="none" x="400" y="0">UNREGISTERED</text><text fill="#eeeeee" stroke="none" font-family="Arial" font-size="24px" font-style="normal" font-weight="normal" text-decoration="none" x="400" y="30">UNREGISTERED</text><text fill="#eeeeee" stroke="none" font-family="Arial" font-size="24px" font-style="normal" font-weight="normal" text-decoration="none" x="400" y="60">UNREGISTERED</text><text fill="#eeeeee" stroke="none" font-family="Arial" font-size="24px" font-style="normal" font-weight="normal" text-decoration="none" x="400" y="90">UNREGISTERED</text><text fill="#eeeeee" stroke="none" font-family="Arial" font-size="24px" font-style="normal" font-weight="normal" text-decoration="none" x="400" y="120">UNREGISTERED</text><text fill="#eeeeee" stroke="none" font-family="Arial" font-size="24px" font-style="normal" font-weight="normal" text-decoration="none" x="400" y="150">UNREGISTERED</text><text fill="#eeeeee" stroke="none" font-family="Arial" font-size="24px" font-style="normal" font-weight="normal" text-decoration="none" x="400" y="180">UNREGISTERED</text><text fill="#eeeeee" stroke="none" font-family="Arial" font-size="24px" font-style="normal" font-weight="normal" text-decoration="none" x="400" y="210">UNREGISTERED</text><text fill="#eeeeee" stroke="none" font-family="Arial" font-size="24px" font-style="normal" font-weight="normal" text-decoration="none" x="400" y="240">UNREGISTERED</text><text fill="#eeeeee" stroke="none" font-family="Arial" font-size="24px" font-style="normal" font-weight="normal" text-decoration="none" x="400" y="270">UNREGISTERED</text><text fill="#eeeeee" stroke="none" font-family="Arial" font-size="24px" font-style="normal" font-weight="normal" text-decoration="none" x="400" y="300">UNREGISTERED</text><text fill="#eeeeee" stroke="none" font-family="Arial" font-size="24px" font-style="normal" font-weight="normal" text-decoration="none" x="400" y="330">UNREGISTERED</text><text fill="#eeeeee" stroke="none" font-family="Arial" font-size="24px" font-style="normal" font-weight="normal" text-decoration="none" x="400" y="360">UNREGISTERED</text><text fill="#eeeeee" stroke="none" font-family="Arial" font-size="24px" font-style="normal" font-weight="normal" text-decoration="none" x="400" y="390">UNREGISTERED</text><text fill="#eeeeee" stroke="none" font-family="Arial" font-size="24px" font-style="normal" font-weight="normal" text-decoration="none" x="400" y="420">UNREGISTERED</text><text fill="#eeeeee" stroke="none" font-family="Arial" font-size="24px" font-style="normal" font-weight="normal" text-decoration="none" x="400" y="450">UNREGISTERED</text><text fill="#eeeeee" stroke="none" font-family="Arial" font-size="24px" font-style="normal" font-weight="normal" text-decoration="none" x="400" y="480">UNREGISTERED</text><text fill="#eeeeee" stroke="none" font-family="Arial" font-size="24px" font-style="normal" font-weight="normal" text-decoration="none" x="400" y="510">UNREGISTERED</text><text fill="#eeeeee" stroke="none" font-family="Arial" font-size="24px" font-style="normal" font-weight="normal" text-decoration="none" x="400" y="540">UNREGISTERED</text><text fill="#eeeeee" stroke="none" font-family="Arial" font-size="24px" font-style="normal" font-weight="normal" text-decoration="none" x="400" y="570">UNREGISTERED</text><text fill="#eeeeee" stroke="none" font-family="Arial" font-size="24px" font-style="normal" font-weight="normal" text-decoration="none" x="400" y="600">UNREGISTERED</text><text fill="#eeeeee" stroke="none" font-family="Arial" font-size="24px" font-style="normal" font-weight="normal" text-decoration="none" x="400" y="630">UNREGISTERED</text><text fill="#eeeeee" stroke="none" font-family="Arial" font-size="24px" font-style="normal" font-weight="normal" text-decoration="none" x="400" y="660">UNREGISTERED</text><text fill="#eeeeee" stroke="none" font-family="Arial" font-size="24px" font-style="normal" font-weight="normal" text-decoration="none" x="400" y="690">UNREGISTERED</text><text fill="#eeeeee" stroke="none" font-family="Arial" font-size="24px" font-style="normal" font-weight="normal" text-decoration="none" x="400" y="720">UNREGISTERED</text><text fill="#eeeeee" stroke="none" font-family="Arial" font-size="24px" font-style="normal" font-weight="normal" text-decoration="none" x="400" y="750">UNREGISTERED</text><text fill="#eeeeee" stroke="none" font-family="Arial" font-size="24px" font-style="normal" font-weight="normal" text-decoration="none" x="400" y="780">UNREGISTERED</text><text fill="#eeeeee" stroke="none" font-family="Arial" font-size="24px" font-style="normal" font-weight="normal" text-decoration="none" x="400" y="810">UNREGISTERED</text><text fill="#eeeeee" stroke="none" font-family="Arial" font-size="24px" font-style="normal" font-weight="normal" text-decoration="none" x="400" y="840">UNREGISTERED</text><text fill="#eeeeee" stroke="none" font-family="Arial" font-size="24px" font-style="normal" font-weight="normal" text-decoration="none" x="400" y="870">UNREGISTERED</text><text fill="#eeeeee" stroke="none" font-family="Arial" font-size="24px" font-style="normal" font-weight="normal" text-decoration="none" x="600" y="0">UNREGISTERED</text><text fill="#eeeeee" stroke="none" font-family="Arial" font-size="24px" font-style="normal" font-weight="normal" text-decoration="none" x="600" y="30">UNREGISTERED</text><text fill="#eeeeee" stroke="none" font-family="Arial" font-size="24px" font-style="normal" font-weight="normal" text-decoration="none" x="600" y="60">UNREGISTERED</text><text fill="#eeeeee" stroke="none" font-family="Arial" font-size="24px" font-style="normal" font-weight="normal" text-decoration="none" x="600" y="90">UNREGISTERED</text><text fill="#eeeeee" stroke="none" font-family="Arial" font-size="24px" font-style="normal" font-weight="normal" text-decoration="none" x="600" y="120">UNREGISTERED</text><text fill="#eeeeee" stroke="none" font-family="Arial" font-size="24px" font-style="normal" font-weight="normal" text-decoration="none" x="600" y="150">UNREGISTERED</text><text fill="#eeeeee" stroke="none" font-family="Arial" font-size="24px" font-style="normal" font-weight="normal" text-decoration="none" x="600" y="180">UNREGISTERED</text><text fill="#eeeeee" stroke="none" font-family="Arial" font-size="24px" font-style="normal" font-weight="normal" text-decoration="none" x="600" y="210">UNREGISTERED</text><text fill="#eeeeee" stroke="none" font-family="Arial" font-size="24px" font-style="normal" font-weight="normal" text-decoration="none" x="600" y="240">UNREGISTERED</text><text fill="#eeeeee" stroke="none" font-family="Arial" font-size="24px" font-style="normal" font-weight="normal" text-decoration="none" x="600" y="270">UNREGISTERED</text><text fill="#eeeeee" stroke="none" font-family="Arial" font-size="24px" font-style="normal" font-weight="normal" text-decoration="none" x="600" y="300">UNREGISTERED</text><text fill="#eeeeee" stroke="none" font-family="Arial" font-size="24px" font-style="normal" font-weight="normal" text-decoration="none" x="600" y="330">UNREGISTERED</text><text fill="#eeeeee" stroke="none" font-family="Arial" font-size="24px" font-style="normal" font-weight="normal" text-decoration="none" x="600" y="360">UNREGISTERED</text><text fill="#eeeeee" stroke="none" font-family="Arial" font-size="24px" font-style="normal" font-weight="normal" text-decoration="none" x="600" y="390">UNREGISTERED</text><text fill="#eeeeee" stroke="none" font-family="Arial" font-size="24px" font-style="normal" font-weight="normal" text-decoration="none" x="600" y="420">UNREGISTERED</text><text fill="#eeeeee" stroke="none" font-family="Arial" font-size="24px" font-style="normal" font-weight="normal" text-decoration="none" x="600" y="450">UNREGISTERED</text><text fill="#eeeeee" stroke="none" font-family="Arial" font-size="24px" font-style="normal" font-weight="normal" text-decoration="none" x="600" y="480">UNREGISTERED</text><text fill="#eeeeee" stroke="none" font-family="Arial" font-size="24px" font-style="normal" font-weight="normal" text-decoration="none" x="600" y="510">UNREGISTERED</text><text fill="#eeeeee" stroke="none" font-family="Arial" font-size="24px" font-style="normal" font-weight="normal" text-decoration="none" x="600" y="540">UNREGISTERED</text><text fill="#eeeeee" stroke="none" font-family="Arial" font-size="24px" font-style="normal" font-weight="normal" text-decoration="none" x="600" y="570">UNREGISTERED</text><text fill="#eeeeee" stroke="none" font-family="Arial" font-size="24px" font-style="normal" font-weight="normal" text-decoration="none" x="600" y="600">UNREGISTERED</text><text fill="#eeeeee" stroke="none" font-family="Arial" font-size="24px" font-style="normal" font-weight="normal" text-decoration="none" x="600" y="630">UNREGISTERED</text><text fill="#eeeeee" stroke="none" font-family="Arial" font-size="24px" font-style="normal" font-weight="normal" text-decoration="none" x="600" y="660">UNREGISTERED</text><text fill="#eeeeee" stroke="none" font-family="Arial" font-size="24px" font-style="normal" font-weight="normal" text-decoration="none" x="600" y="690">UNREGISTERED</text><text fill="#eeeeee" stroke="none" font-family="Arial" font-size="24px" font-style="normal" font-weight="normal" text-decoration="none" x="600" y="720">UNREGISTERED</text><text fill="#eeeeee" stroke="none" font-family="Arial" font-size="24px" font-style="normal" font-weight="normal" text-decoration="none" x="600" y="750">UNREGISTERED</text><text fill="#eeeeee" stroke="none" font-family="Arial" font-size="24px" font-style="normal" font-weight="normal" text-decoration="none" x="600" y="780">UNREGISTERED</text><text fill="#eeeeee" stroke="none" font-family="Arial" font-size="24px" font-style="normal" font-weight="normal" text-decoration="none" x="600" y="810">UNREGISTERED</text><text fill="#eeeeee" stroke="none" font-family="Arial" font-size="24px" font-style="normal" font-weight="normal" text-decoration="none" x="600" y="840">UNREGISTERED</text><text fill="#eeeeee" stroke="none" font-family="Arial" font-size="24px" font-style="normal" font-weight="normal" text-decoration="none" x="600" y="870">UNREGISTERED</text><g transform="translate(-54,2) scale(1,1)"><rect fill="#ffffff" stroke="none" x="248" y="8" width="159" height="40"/></g><g transform="translate(-54,2) scale(1,1)"><path fill="none" stroke="#000000" d="M 248 8 L 407 8 L 407 48 L 248 48 L 248 8 Z Z" stroke-miterlimit="10"/></g><g transform="translate(-54,2) scale(1,1)"><path fill="none" stroke="#000000" d="M 253 8 L 253 48" stroke-miterlimit="10"/></g><g transform="translate(-54,2) scale(1,1)"><path fill="none" stroke="#000000" d="M 402 8 L 402 48" stroke-miterlimit="10"/></g><g transform="translate(-54,2) scale(1,1)"><g><path fill="none" stroke="none"/><text fill="#000000" stroke="none" font-family="Arial" font-size="13px" font-style="normal" font-weight="normal" text-decoration="none" x="287.010498046875" y="30.5">Paying for Bills</text></g></g><g transform="translate(-54,2) scale(1,1)"><rect fill="#ffffff" stroke="none" x="88" y="128" width="111" height="39"/></g><g transform="translate(-54,2) scale(1,1)"><path fill="none" stroke="#000000" d="M 88 128 L 199 128 L 199 167 L 88 167 L 88 128 Z Z" stroke-miterlimit="10"/></g><g transform="translate(-54,2) scale(1,1)"><g><path fill="none" stroke="none"/><text fill="#000000" stroke="none" font-family="Arial" font-size="13px" font-style="normal" font-weight="normal" text-decoration="none" x="130.49365234375" y="150.5">ESB</text></g></g><g transform="translate(-54,2) scale(1,1)"><rect fill="#ffffff" stroke="none" x="280" y="128" width="135" height="39"/></g><g transform="translate(-54,2) scale(1,1)"><path fill="none" stroke="#000000" d="M 280 128 L 415 128 L 415 167 L 280 167 L 280 128 Z Z" stroke-miterlimit="10"/></g><g transform="translate(-54,2) scale(1,1)"><g><path fill="none" stroke="none"/><text fill="#000000" stroke="none" font-family="Arial" font-size="13px" font-style="normal" font-weight="normal" text-decoration="none" x="318.23095703125" y="150.5">Phone Bill</text></g></g><g transform="translate(-54,2) scale(1,1)"><rect fill="#ffffff" stroke="none" x="480" y="128" width="127" height="39"/></g><g transform="translate(-54,2) scale(1,1)"><path fill="none" stroke="#000000" d="M 480 128 L 607 128 L 607 167 L 480 167 L 480 128 Z Z" stroke-miterlimit="10"/></g><g transform="translate(-54,2) scale(1,1)"><g><path fill="none" stroke="none"/><text fill="#000000" stroke="none" font-family="Arial" font-size="13px" font-style="normal" font-weight="normal" text-decoration="none" x="499.793212890625" y="150.5">Credit Card Bill</text></g></g><g transform="translate(-54,2) scale(1,1)"><path fill="none" stroke="#000000" d="M 338 48 L 338 128" stroke-miterlimit="10"/></g><g transform="translate(-54,2) scale(1,1)"><path fill="#000000" stroke="none" d="M 333.790482243984 117.83732514237585 L 338 128 L 342.209517756016 117.83732514237585"/></g><g transform="translate(-54,2) scale(1,1)"><path fill="none" stroke="#000000" d="M 333.790482243984 117.83732514237585 L 338 128 L 342.209517756016 117.83732514237585 L 333.790482243984 117.83732514237585" stroke-miterlimit="10"/></g><g transform="translate(-54,2) scale(1,1)"><path fill="none" stroke="#000000" d="M 391 96 L 544 96 M 544 96 A 8 8 0 0 1 552 104 L 552 128" stroke-miterlimit="10"/></g><g transform="translate(-54,2) scale(1,1)"><path fill="#000000" stroke="none" d="M 547.790482243984 117.83732514237585 L 552 128 L 556.209517756016 117.83732514237585"/></g><g transform="translate(-54,2) scale(1,1)"><path fill="none" stroke="#000000" d="M 547.790482243984 117.83732514237585 L 552 128 L 556.209517756016 117.83732514237585 L 547.790482243984 117.83732514237585" stroke-miterlimit="10"/></g><g transform="translate(-54,2) scale(1,1)"><path fill="none" stroke="#000000" d="M 280 96 L 144 96 M 144 96 A 8 8 0 0 0 136 104 L 136 128" stroke-miterlimit="10"/></g><g transform="translate(-54,2) scale(1,1)"><path fill="#000000" stroke="none" d="M 131.790482243984 117.83732514237585 L 136 128 L 140.209517756016 117.83732514237585"/></g><g transform="translate(-54,2) scale(1,1)"><path fill="none" stroke="#000000" d="M 131.790482243984 117.83732514237585 L 136 128 L 140.209517756016 117.83732514237585 L 131.790482243984 117.83732514237585" stroke-miterlimit="10"/></g><g transform="translate(-54,2) scale(1,1)"><rect fill="#ffffff" stroke="none" x="280" y="64" width="111" height="45"/></g><g transform="translate(-54,2) scale(1,1)"><path fill="none" stroke="#000000" d="M 280 64 L 391 64 L 391 109 L 280 109 L 280 64 Z Z" stroke-miterlimit="10"/></g><g transform="translate(-54,2) scale(1,1)"><g><path fill="none" stroke="none"/><text fill="#000000" stroke="none" font-family="Arial" font-size="13px" font-style="normal" font-weight="normal" text-decoration="none" x="291.06640625" y="86.5">Go to customer</text><text fill="#000000" stroke="none" font-family="Arial" font-size="13px" font-style="normal" font-weight="normal" text-decoration="none" x="291.425048828125" y="99.5">service counter</text></g></g><g transform="translate(-54,2) scale(1,1)"><path fill="#ffffff" stroke="none" d="M 328 190.5 C 328 182.4918704 334.4918704 176 342.5 176 C 350.5081296 176 357 182.4918704 357 190.5 C 357 198.5081296 350.5081296 205 342.5 205 C 334.4918704 205 328 198.5081296 328 190.5 Z"/></g><g transform="translate(-54,2) scale(1,1)"><path fill="none" stroke="#000000" d="M 328 190.5 C 328 182.4918704 334.4918704 176 342.5 176 C 350.5081296 176 357 182.4918704 357 190.5 C 357 198.5081296 350.5081296 205 342.5 205 C 334.4918704 205 328 198.5081296 328 190.5 Z" stroke-miterlimit="10"/></g><g transform="translate(-54,2) scale(1,1)"><g><path fill="none" stroke="none"/></g></g><g transform="translate(-54,2) scale(1,1)"><path fill="#ffffff" stroke="none" d="M 304 233 L 383 224 L 383 282 L 304 282 L 304 233"/></g><g transform="translate(-54,2) scale(1,1)"><path fill="none" stroke="#000000" d="M 304 233 L 383 224 L 383 282 L 304 282 L 304 233 L 304 233" stroke-miterlimit="10"/></g><g transform="translate(-54,2) scale(1,1)"><g><path fill="none" stroke="none"/><text fill="#000000" stroke="none" font-family="Arial" font-size="13px" font-style="normal" font-weight="normal" text-decoration="none" x="321.4609375" y="251">Provide</text><text fill="#000000" stroke="none" font-family="Arial" font-size="13px" font-style="normal" font-weight="normal" text-decoration="none" x="318.56640625" y="264">personal</text><text fill="#000000" stroke="none" font-family="Arial" font-size="13px" font-style="normal" font-weight="normal" text-decoration="none" x="330.84912109375" y="277">data</text></g></g><g transform="translate(-54,2) scale(1,1)"><path fill="#ffffff" stroke="none" d="M 304 313 L 383 304 L 383 362 L 304 362 L 304 313"/></g><g transform="translate(-54,2) scale(1,1)"><path fill="none" stroke="#000000" d="M 304 313 L 383 304 L 383 362 L 304 362 L 304 313 L 304 313" stroke-miterlimit="10"/></g><g transform="translate(-54,2) scale(1,1)"><g><path fill="none" stroke="none"/><text fill="#000000" stroke="none" font-family="Arial" font-size="13px" font-style="normal" font-weight="normal" text-decoration="none" x="320.016845703125" y="331">Receive</text><text fill="#000000" stroke="none" font-family="Arial" font-size="13px" font-style="normal" font-weight="normal" text-decoration="none" x="317.484130859375" y="344">choice of</text><text fill="#000000" stroke="none" font-family="Arial" font-size="13px" font-style="normal" font-weight="normal" text-decoration="none" x="317.484130859375" y="357">accounts</text></g></g><g transform="translate(-54,2) scale(1,1)"><path fill="#ffffff" stroke="none" d="M 288 409.5 L 344.58447265625 384 L 401.1689453125 409.5 L 344.58447265625 435 L 288 409.5"/></g><g transform="translate(-54,2) scale(1,1)"><path fill="none" stroke="#000000" d="M 288 409.5 L 344.58447265625 384 L 401.1689453125 409.5 L 344.58447265625 435 L 288 409.5 L 288 409.5" stroke-miterlimit="10"/></g><g transform="translate(-54,2) scale(1,1)"><g><path fill="none" stroke="none"/><text fill="#000000" stroke="none" font-family="Arial" font-size="13px" font-style="normal" font-weight="normal" text-decoration="none" x="318.93359375" y="409.5">Payment</text><text fill="#000000" stroke="none" font-family="Arial" font-size="13px" font-style="normal" font-weight="normal" text-decoration="none" x="322.904052734375" y="422.5">Method</text></g></g><g transform="translate(-54,2) scale(1,1)"><path fill="#ffffff" stroke="none" d="M 64 457 L 159 448 L 159 506 L 64 506 L 64 457"/></g><g transform="translate(-54,2) scale(1,1)"><path fill="none" stroke="#000000" d="M 64 457 L 159 448 L 159 506 L 64 506 L 64 457 L 64 457" stroke-miterlimit="10"/></g><g transform="translate(-54,2) scale(1,1)"><g><path fill="none" stroke="none"/><text fill="#000000" stroke="none" font-family="Arial" font-size="13px" font-style="normal" font-weight="normal" text-decoration="none" x="89.4609375" y="475">Deposit</text><text fill="#000000" stroke="none" font-family="Arial" font-size="13px" font-style="normal" font-weight="normal" text-decoration="none" x="75.36279296875" y="488">notes and/or</text><text fill="#000000" stroke="none" font-family="Arial" font-size="13px" font-style="normal" font-weight="normal" text-decoration="none" x="96.325927734375" y="501">coins</text></g></g><g transform="translate(-54,2) scale(1,1)"><path fill="#ffffff" stroke="none" d="M 296 464 L 384 456 L 384 504 L 296 504 L 296 464"/></g><g transform="translate(-54,2) scale(1,1)"><path fill="none" stroke="#000000" d="M 296 464 L 384 456 L 384 504 L 296 504 L 296 464 L 296 464" stroke-miterlimit="10"/></g><g transform="translate(-54,2) scale(1,1)"><g><path fill="none" stroke="none"/><text fill="#000000" stroke="none" font-family="Arial" font-size="13px" font-style="normal" font-weight="normal" text-decoration="none" x="313.984130859375" y="490.5">Enter pin</text></g></g><g transform="translate(-54,2) scale(1,1)"><path fill="#ffffff" stroke="none" d="M 488 457 L 591 448 L 591 503 L 488 503 L 488 457"/></g><g transform="translate(-54,2) scale(1,1)"><path fill="none" stroke="#000000" d="M 488 457 L 591 448 L 591 503 L 488 503 L 488 457 L 488 457" stroke-miterlimit="10"/></g><g transform="translate(-54,2) scale(1,1)"><g><path fill="none" stroke="none"/><text fill="#000000" stroke="none" font-family="Arial" font-size="13px" font-style="normal" font-weight="normal" text-decoration="none" x="517.4609375" y="480">Deposit</text><text fill="#000000" stroke="none" font-family="Arial" font-size="13px" font-style="normal" font-weight="normal" text-decoration="none" x="518.175048828125" y="493">cheque</text></g></g><g transform="translate(-54,2) scale(1,1)"><path fill="none" stroke="#000000" d="M 199 167 L 199 179 M 199 179 A 8 8 0 0 0 207 187 L 328 187" stroke-miterlimit="10"/></g><g transform="translate(-54,2) scale(1,1)"><path fill="#000000" stroke="none" d="M 317.83732514237585 191.209517756016 L 328 187 L 317.83732514237585 182.790482243984"/></g><g transform="translate(-54,2) scale(1,1)"><path fill="none" stroke="#000000" d="M 317.83732514237585 191.209517756016 L 328 187 L 317.83732514237585 182.790482243984 L 317.83732514237585 191.209517756016" stroke-miterlimit="10"/></g><g transform="translate(-54,2) scale(1,1)"><path fill="none" stroke="#000000" d="M 345 167 L 345 176" stroke-miterlimit="10"/></g><g transform="translate(-54,2) scale(1,1)"><path fill="#000000" stroke="none" d="M 340.790482243984 165.83732514237585 L 345 176 L 349.209517756016 165.83732514237585"/></g><g transform="translate(-54,2) scale(1,1)"><path fill="none" stroke="#000000" d="M 340.790482243984 165.83732514237585 L 345 176 L 349.209517756016 165.83732514237585 L 340.790482243984 165.83732514237585" stroke-miterlimit="10"/></g><g transform="translate(-54,2) scale(1,1)"><path fill="none" stroke="#000000" d="M 480 167 L 480 184 M 480 184 A 8 8 0 0 1 472 192 L 357 192" stroke-miterlimit="10"/></g><g transform="translate(-54,2) scale(1,1)"><path fill="#000000" stroke="none" d="M 367.16267485762415 187.790482243984 L 357 192 L 367.16267485762415 196.209517756016"/></g><g transform="translate(-54,2) scale(1,1)"><path fill="none" stroke="#000000" d="M 367.16267485762415 187.790482243984 L 357 192 L 367.16267485762415 196.209517756016 L 367.16267485762415 187.790482243984" stroke-miterlimit="10"/></g><g transform="translate(-54,2) scale(1,1)"><path fill="none" stroke="#000000" d="M 342 205 L 342 224" stroke-miterlimit="10"/></g><g transform="translate(-54,2) scale(1,1)"><path fill="#000000" stroke="none" d="M 337.790482243984 213.83732514237585 L 342 224 L 346.209517756016 213.83732514237585"/></g><g transform="translate(-54,2) scale(1,1)"><path fill="none" stroke="#000000" d="M 337.790482243984 213.83732514237585 L 342 224 L 346.209517756016 213.83732514237585 L 337.790482243984 213.83732514237585" stroke-miterlimit="10"/></g><g transform="translate(-54,2) scale(1,1)"><path fill="none" stroke="#000000" d="M 343 282 L 343 304" stroke-miterlimit="10"/></g><g transform="translate(-54,2) scale(1,1)"><path fill="#000000" stroke="none" d="M 338.790482243984 293.83732514237585 L 343 304 L 347.209517756016 293.83732514237585"/></g><g transform="translate(-54,2) scale(1,1)"><path fill="none" stroke="#000000" d="M 338.790482243984 293.83732514237585 L 343 304 L 347.209517756016 293.83732514237585 L 338.790482243984 293.83732514237585" stroke-miterlimit="10"/></g><g transform="translate(-54,2) scale(1,1)"><path fill="none" stroke="#000000" d="M 343 362 L 343 384" stroke-miterlimit="10"/></g><g transform="translate(-54,2) scale(1,1)"><path fill="#000000" stroke="none" d="M 338.790482243984 373.83732514237585 L 343 384 L 347.209517756016 373.83732514237585"/></g><g transform="translate(-54,2) scale(1,1)"><path fill="none" stroke="#000000" d="M 338.790482243984 373.83732514237585 L 343 384 L 347.209517756016 373.83732514237585 L 338.790482243984 373.83732514237585" stroke-miterlimit="10"/></g><g transform="translate(-54,2) scale(1,1)"><path fill="none" stroke="#000000" d="M 288 408 L 112 408 M 112 408 A 8 8 0 0 0 104 416 L 104 448" stroke-miterlimit="10"/></g><g transform="translate(-54,2) scale(1,1)"><path fill="#000000" stroke="none" d="M 99.79048224398402 437.83732514237585 L 104 448 L 108.20951775601598 437.83732514237585"/></g><g transform="translate(-54,2) scale(1,1)"><path fill="none" stroke="#000000" d="M 99.79048224398402 437.83732514237585 L 104 448 L 108.20951775601598 437.83732514237585 L 99.79048224398402 437.83732514237585" stroke-miterlimit="10"/></g><g transform="translate(-54,2) scale(1,1)"><path fill="none" stroke="#000000" d="M 401 408 L 544 408 M 544 408 A 8 8 0 0 1 552 416 L 552 448" stroke-miterlimit="10"/></g><g transform="translate(-54,2) scale(1,1)"><path fill="#000000" stroke="none" d="M 547.790482243984 437.83732514237585 L 552 448 L 556.209517756016 437.83732514237585"/></g><g transform="translate(-54,2) scale(1,1)"><path fill="none" stroke="#000000" d="M 547.790482243984 437.83732514237585 L 552 448 L 556.209517756016 437.83732514237585 L 547.790482243984 437.83732514237585" stroke-miterlimit="10"/></g><g transform="translate(-54,2) scale(1,1)"><path fill="none" stroke="#000000" d="M 341 435 L 341 456" stroke-miterlimit="10"/></g><g transform="translate(-54,2) scale(1,1)"><path fill="#000000" stroke="none" d="M 336.790482243984 445.83732514237585 L 341 456 L 345.209517756016 445.83732514237585"/></g><g transform="translate(-54,2) scale(1,1)"><path fill="none" stroke="#000000" d="M 336.790482243984 445.83732514237585 L 341 456 L 345.209517756016 445.83732514237585 L 336.790482243984 445.83732514237585" stroke-miterlimit="10"/></g><g transform="translate(-54,2) scale(1,1)"><g><path fill="none" stroke="none"/><text fill="#000000" stroke="none" font-family="Arial" font-size="13px" font-style="normal" font-weight="normal" text-decoration="none" x="350.5" y="448.5">Card</text></g></g><g transform="translate(-54,2) scale(1,1)"><g><path fill="none" stroke="none"/><text fill="#000000" stroke="none" font-family="Arial" font-size="13px" font-style="normal" font-weight="normal" text-decoration="none" x="173" y="394">Cash</text></g></g><g transform="translate(-54,2) scale(1,1)"><g><path fill="none" stroke="none"/><text fill="#000000" stroke="none" font-family="Arial" font-size="13px" font-style="normal" font-weight="normal" text-decoration="none" x="453" y="402">Cheque</text></g></g><g transform="translate(-54,2) scale(1,1)"><path fill="#ffffff" stroke="none" d="M 317 520 L 383 520 L 370 565 L 304 565 L 317 520"/></g><g transform="translate(-54,2) scale(1,1)"><path fill="none" stroke="#000000" d="M 317 520 L 383 520 L 370 565 L 304 565 L 317 520 L 317 520" stroke-miterlimit="10"/></g><g transform="translate(-54,2) scale(1,1)"><g><path fill="none" stroke="none"/><text fill="#000000" stroke="none" font-family="Arial" font-size="13px" font-style="normal" font-weight="normal" text-decoration="none" x="328.319580078125" y="542.5">Send</text><text fill="#000000" stroke="none" font-family="Arial" font-size="13px" font-style="normal" font-weight="normal" text-decoration="none" x="334.825927734375" y="555.5">pin</text></g></g><g transform="translate(-54,2) scale(1,1)"><rect fill="#ffffff" stroke="none" x="304" y="584" width="79" height="45"/></g><g transform="translate(-54,2) scale(1,1)"><path fill="none" stroke="#000000" d="M 304 584 L 383 584 L 383 629 L 304 629 L 304 584 Z Z" stroke-miterlimit="10"/></g><g transform="translate(-54,2) scale(1,1)"><g><path fill="none" stroke="none"/><text fill="#000000" stroke="none" font-family="Arial" font-size="13px" font-style="normal" font-weight="normal" text-decoration="none" x="316.0400390625" y="606.5">Authorize</text><text fill="#000000" stroke="none" font-family="Arial" font-size="13px" font-style="normal" font-weight="normal" text-decoration="none" x="330.85546875" y="619.5">card</text></g></g><g transform="translate(-54,2) scale(1,1)"><rect fill="#ffffff" stroke="none" x="72" y="536" width="73.18994140625" height="71"/></g><g transform="translate(-54,2) scale(1,1)"><path fill="none" stroke="#000000" d="M 72 536 L 145.18994140625 536 L 145.18994140625 607 L 72 607 L 72 536 Z Z" stroke-miterlimit="10"/></g><g transform="translate(-54,2) scale(1,1)"><g><path fill="none" stroke="none"/><text fill="#000000" stroke="none" font-family="Arial" font-size="13px" font-style="normal" font-weight="normal" text-decoration="none" x="91.25" y="558.5">Count</text><text fill="#000000" stroke="none" font-family="Arial" font-size="13px" font-style="normal" font-weight="normal" text-decoration="none" x="92.694091796875" y="571.5">notes</text><text fill="#000000" stroke="none" font-family="Arial" font-size="13px" font-style="normal" font-weight="normal" text-decoration="none" x="90.16455078125" y="584.5">and or</text><text fill="#000000" stroke="none" font-family="Arial" font-size="13px" font-style="normal" font-weight="normal" text-decoration="none" x="93.4208984375" y="597.5">coins</text></g></g><g transform="translate(-54,2) scale(1,1)"><rect fill="#ffffff" stroke="none" x="512" y="544" width="91.2744140625" height="47"/></g><g transform="translate(-54,2) scale(1,1)"><path fill="none" stroke="#000000" d="M 512 544 L 603.2744140625 544 L 603.2744140625 591 L 512 591 L 512 544 Z Z" stroke-miterlimit="10"/></g><g transform="translate(-54,2) scale(1,1)"><g><path fill="none" stroke="none"/><text fill="#000000" stroke="none" font-family="Arial" font-size="13px" font-style="normal" font-weight="normal" text-decoration="none" x="521.5" y="566.5">Authenticate</text><text fill="#000000" stroke="none" font-family="Arial" font-size="13px" font-style="normal" font-weight="normal" text-decoration="none" x="536.312255859375" y="579.5">cheque</text></g></g><g transform="translate(-54,2) scale(1,1)"><path fill="none" stroke="#000000" d="M 110 506 L 110 536" stroke-miterlimit="10"/></g><g transform="translate(-54,2) scale(1,1)"><path fill="#000000" stroke="none" d="M 105.79048224398402 525.8373251423759 L 110 536 L 114.20951775601598 525.8373251423759"/></g><g transform="translate(-54,2) scale(1,1)"><path fill="none" stroke="#000000" d="M 105.79048224398402 525.8373251423759 L 110 536 L 114.20951775601598 525.8373251423759 L 105.79048224398402 525.8373251423759" stroke-miterlimit="10"/></g><g transform="translate(-54,2) scale(1,1)"><path fill="none" stroke="#000000" d="M 544 503 L 544 544" stroke-miterlimit="10"/></g><g transform="translate(-54,2) scale(1,1)"><path fill="#000000" stroke="none" d="M 539.790482243984 533.8373251423759 L 544 544 L 548.209517756016 533.8373251423759"/></g><g transform="translate(-54,2) scale(1,1)"><path fill="none" stroke="#000000" d="M 539.790482243984 533.8373251423759 L 544 544 L 548.209517756016 533.8373251423759 L 539.790482243984 533.8373251423759" stroke-miterlimit="10"/></g><g transform="translate(-54,2) scale(1,1)"><path fill="none" stroke="#000000" d="M 341 504 L 341 520" stroke-miterlimit="10"/></g><g transform="translate(-54,2) scale(1,1)"><path fill="#000000" stroke="none" d="M 336.790482243984 509.83732514237585 L 341 520 L 345.209517756016 509.83732514237585"/></g><g transform="translate(-54,2) scale(1,1)"><path fill="none" stroke="#000000" d="M 336.790482243984 509.83732514237585 L 341 520 L 345.209517756016 509.83732514237585 L 336.790482243984 509.83732514237585" stroke-miterlimit="10"/></g><g transform="translate(-54,2) scale(1,1)"><path fill="none" stroke="#000000" d="M 343 565 L 343 584" stroke-miterlimit="10"/></g><g transform="translate(-54,2) scale(1,1)"><path fill="#000000" stroke="none" d="M 338.790482243984 573.8373251423759 L 343 584 L 347.209517756016 573.8373251423759"/></g><g transform="translate(-54,2) scale(1,1)"><path fill="none" stroke="#000000" d="M 338.790482243984 573.8373251423759 L 343 584 L 347.209517756016 573.8373251423759 L 338.790482243984 573.8373251423759" stroke-miterlimit="10"/></g><g transform="translate(-54,2) scale(1,1)"><path fill="#ffffff" stroke="none" d="M 276 832 L 427 832 Q 447 832 447 852 L 447 851 Q 447 871 427 871 L 276 871 Q 256 871 256 851 L 256 852 Q 256 832 276 832 Z"/></g><g transform="translate(-54,2) scale(1,1)"><path fill="none" stroke="#000000" d="M 276 832 L 427 832 Q 447 832 447 852 L 447 851 Q 447 871 427 871 L 276 871 Q 256 871 256 851 L 256 852 Q 256 832 276 832 Z" stroke-miterlimit="10"/></g><g transform="translate(-54,2) scale(1,1)"><g><path fill="none" stroke="none"/><text fill="#000000" stroke="none" font-family="Arial" font-size="13px" font-style="normal" font-weight="normal" text-decoration="none" x="300.3125" y="854.5">Leave Post Office</text></g></g><g transform="translate(-54,2) scale(1,1)"><path fill="#ffffff" stroke="none" d="M 288 758.5 L 344.58447265625 720 L 401.1689453125 758.5 L 344.58447265625 797 L 288 758.5"/></g><g transform="translate(-54,2) scale(1,1)"><path fill="none" stroke="#000000" d="M 288 758.5 L 344.58447265625 720 L 401.1689453125 758.5 L 344.58447265625 797 L 288 758.5 L 288 758.5" stroke-miterlimit="10"/></g><g transform="translate(-54,2) scale(1,1)"><g><path fill="none" stroke="none"/><text fill="#000000" stroke="none" font-family="Arial" font-size="13px" font-style="normal" font-weight="normal" text-decoration="none" x="333.384033203125" y="752">Pay</text><text fill="#000000" stroke="none" font-family="Arial" font-size="13px" font-style="normal" font-weight="normal" text-decoration="none" x="322.5390625" y="765">another</text><text fill="#000000" stroke="none" font-family="Arial" font-size="13px" font-style="normal" font-weight="normal" text-decoration="none" x="333.022216796875" y="778">bill?</text></g></g><g transform="translate(-54,2) scale(1,1)"><path fill="#ffffff" stroke="none" d="M 320 671.5 C 320 662.9395856 328.7304464 656 339.5 656 C 350.2695536 656 359 662.9395856 359 671.5 C 359 680.0604144 350.2695536 687 339.5 687 C 328.7304464 687 320 680.0604144 320 671.5 Z"/></g><g transform="translate(-54,2) scale(1,1)"><path fill="none" stroke="#000000" d="M 320 671.5 C 320 662.9395856 328.7304464 656 339.5 656 C 350.2695536 656 359 662.9395856 359 671.5 C 359 680.0604144 350.2695536 687 339.5 687 C 328.7304464 687 320 680.0604144 320 671.5 Z" stroke-miterlimit="10"/></g><g transform="translate(-54,2) scale(1,1)"><g><path fill="none" stroke="none"/></g></g><g transform="translate(-54,2) scale(1,1)"><path fill="none" stroke="#000000" d="M 145 607 L 145 664 M 145 664 A 8 8 0 0 0 153 672 L 320 672" stroke-miterlimit="10"/></g><g transform="translate(-54,2) scale(1,1)"><path fill="#000000" stroke="none" d="M 309.83732514237585 676.209517756016 L 320 672 L 309.83732514237585 667.790482243984"/></g><g transform="translate(-54,2) scale(1,1)"><path fill="none" stroke="#000000" d="M 309.83732514237585 676.209517756016 L 320 672 L 309.83732514237585 667.790482243984 L 309.83732514237585 676.209517756016" stroke-miterlimit="10"/></g><g transform="translate(-54,2) scale(1,1)"><path fill="none" stroke="#000000" d="M 342 629 L 342 656" stroke-miterlimit="10"/></g><g transform="translate(-54,2) scale(1,1)"><path fill="#000000" stroke="none" d="M 337.790482243984 645.8373251423759 L 342 656 L 346.209517756016 645.8373251423759"/></g><g transform="translate(-54,2) scale(1,1)"><path fill="none" stroke="#000000" d="M 337.790482243984 645.8373251423759 L 342 656 L 346.209517756016 645.8373251423759 L 337.790482243984 645.8373251423759" stroke-miterlimit="10"/></g><g transform="translate(-54,2) scale(1,1)"><path fill="none" stroke="#000000" d="M 512 591 L 512 664 M 512 664 A 8 8 0 0 1 504 672 L 359 672" stroke-miterlimit="10"/></g><g transform="translate(-54,2) scale(1,1)"><path fill="#000000" stroke="none" d="M 369.16267485762415 667.790482243984 L 359 672 L 369.16267485762415 676.209517756016"/></g><g transform="translate(-54,2) scale(1,1)"><path fill="none" stroke="#000000" d="M 369.16267485762415 667.790482243984 L 359 672 L 369.16267485762415 676.209517756016 L 369.16267485762415 667.790482243984" stroke-miterlimit="10"/></g><g transform="translate(-54,2) scale(1,1)"><path fill="none" stroke="#000000" d="M 340 687 L 340 720" stroke-miterlimit="10"/></g><g transform="translate(-54,2) scale(1,1)"><path fill="#000000" stroke="none" d="M 335.790482243984 709.8373251423759 L 340 720 L 344.209517756016 709.8373251423759"/></g><g transform="translate(-54,2) scale(1,1)"><path fill="none" stroke="#000000" d="M 335.790482243984 709.8373251423759 L 340 720 L 344.209517756016 709.8373251423759 L 335.790482243984 709.8373251423759" stroke-miterlimit="10"/></g><g transform="translate(-54,2) scale(1,1)"><path fill="none" stroke="#000000" d="M 347 797 L 347 832" stroke-miterlimit="10"/></g><g transform="translate(-54,2) scale(1,1)"><path fill="#000000" stroke="none" d="M 342.790482243984 821.8373251423759 L 347 832 L 351.209517756016 821.8373251423759"/></g><g transform="translate(-54,2) scale(1,1)"><path fill="none" stroke="#000000" d="M 342.790482243984 821.8373251423759 L 347 832 L 351.209517756016 821.8373251423759 L 342.790482243984 821.8373251423759" stroke-miterlimit="10"/></g><g transform="translate(-54,2) scale(1,1)"><g><path fill="none" stroke="none"/><text fill="#000000" stroke="none" font-family="Arial" font-size="13px" font-style="normal" font-weight="normal" text-decoration="none" x="352.5" y="819.5">No</text></g></g><g transform="translate(-54,2) scale(1,1)"><path fill="none" stroke="#000000" d="M 401 760 L 664 760 M 664 760 A 8 8 0 0 0 672 752 L 672 88 M 672 88 A 8 8 0 0 0 664 80 L 391 80" stroke-miterlimit="10"/></g><g transform="translate(-54,2) scale(1,1)"><path fill="#000000" stroke="none" d="M 401.16267485762415 75.79048224398402 L 391 80 L 401.16267485762415 84.20951775601598"/></g><g transform="translate(-54,2) scale(1,1)"><path fill="none" stroke="#000000" d="M 401.16267485762415 75.79048224398402 L 391 80 L 401.16267485762415 84.20951775601598 L 401.16267485762415 75.79048224398402" stroke-miterlimit="10"/></g><g transform="translate(-54,2) scale(1,1)"><g><path fill="none" stroke="none"/><text fill="#000000" stroke="none" font-family="Arial" font-size="13px" font-style="normal" font-weight="normal" text-decoration="none" x="447.5" y="756.5">Yes</text></g></g></g></svg>